G04*
G04 #@! TF.GenerationSoftware,Altium Limited,Altium Designer,20.0.9 (164)*
G04*
G04 Layer_Color=8388736*
%FSLAX25Y25*%
%MOIN*%
G70*
G01*
G75*
%ADD58R,0.03937X0.05512*%
%ADD85R,0.04461X0.04658*%
%ADD86R,0.04658X0.04461*%
%ADD87R,0.06706X0.04343*%
%ADD88R,0.06800X0.12000*%
%ADD89R,0.12000X0.06800*%
%ADD90R,0.08674X0.08674*%
%ADD91R,0.23241X0.08674*%
%ADD92R,0.22453X0.19265*%
%ADD93R,0.09934X0.12729*%
%ADD94R,0.09265X0.12020*%
%ADD95O,0.01587X0.03162*%
%ADD96O,0.03162X0.01587*%
%ADD97R,0.05367X0.03517*%
%ADD98R,0.11430X0.04737*%
%ADD99R,0.15761X0.07887*%
%ADD100R,0.09461X0.07099*%
%ADD101R,0.09383X0.07099*%
%ADD102R,0.12020X0.06312*%
%ADD103O,0.03162X0.09461*%
%ADD104R,0.06706X0.14186*%
%ADD105R,0.04737X0.14580*%
%ADD106O,0.02572X0.07099*%
%ADD107R,0.07099X0.12611*%
%ADD108R,0.04737X0.22453*%
%ADD109O,0.09068X0.01981*%
%ADD110O,0.01981X0.09068*%
%ADD111R,0.06706X0.13398*%
%ADD112R,0.10249X0.04737*%
%ADD113R,0.10249X0.13792*%
%ADD114R,0.07099X0.13398*%
%ADD115R,0.08280X0.05426*%
%ADD116R,0.08280X0.10150*%
%ADD117R,0.09068X0.06607*%
%ADD118R,0.06233X0.02572*%
%ADD119R,0.03792X0.04816*%
%ADD120R,0.07887X0.05721*%
%ADD121R,0.05367X0.06587*%
G04:AMPARAMS|DCode=122|XSize=33.59mil|YSize=55.24mil|CornerRadius=5.92mil|HoleSize=0mil|Usage=FLASHONLY|Rotation=90.000|XOffset=0mil|YOffset=0mil|HoleType=Round|Shape=RoundedRectangle|*
%AMROUNDEDRECTD122*
21,1,0.03359,0.04341,0,0,90.0*
21,1,0.02175,0.05524,0,0,90.0*
1,1,0.01184,0.02170,0.01088*
1,1,0.01184,0.02170,-0.01088*
1,1,0.01184,-0.02170,-0.01088*
1,1,0.01184,-0.02170,0.01088*
%
%ADD122ROUNDEDRECTD122*%
%ADD123R,0.04737X0.04540*%
%ADD124R,0.04540X0.04737*%
%ADD125R,0.16548X0.16548*%
%ADD126R,0.05524X0.01981*%
%ADD127R,0.04737X0.01587*%
%ADD128R,0.03353X0.03550*%
%ADD129R,0.02684X0.03550*%
%ADD130R,0.04698X0.03517*%
%ADD131R,0.03359X0.05328*%
%ADD132R,0.03550X0.03353*%
%ADD133R,0.03550X0.02684*%
%ADD134O,0.03556X0.07887*%
%ADD135R,0.15367X0.15367*%
%ADD136O,0.01587X0.03753*%
%ADD137O,0.03753X0.01587*%
%ADD138R,0.11351X0.11351*%
%ADD139O,0.03950X0.01587*%
%ADD140O,0.01587X0.03950*%
%ADD141R,0.06312X0.05328*%
%ADD142R,0.05721X0.07887*%
%ADD143R,0.05524X0.06706*%
%ADD144R,0.04343X0.03950*%
%ADD145R,0.06902X0.05918*%
%ADD146R,0.01981X0.07099*%
%ADD147C,0.06706*%
%ADD148R,0.06706X0.06706*%
%ADD149R,0.06706X0.06706*%
%ADD150C,0.04737*%
%ADD151R,0.04737X0.04737*%
%ADD152C,0.03359*%
%ADD153O,0.07099X0.04737*%
%ADD154C,0.03950*%
%ADD155C,0.02769*%
D58*
X1121500Y785886D02*
D03*
Y775650D02*
D03*
D85*
X782468Y510500D02*
D03*
X788531D02*
D03*
X929312Y1000500D02*
D03*
X935375D02*
D03*
X960094Y1123500D02*
D03*
X966157D02*
D03*
X927531D02*
D03*
X933594D02*
D03*
X894969D02*
D03*
X901032D02*
D03*
X771000Y466000D02*
D03*
X777063D02*
D03*
X1057781Y1123500D02*
D03*
X1063844D02*
D03*
X1025219D02*
D03*
X1031282D02*
D03*
X992656D02*
D03*
X998719D02*
D03*
X736969Y486000D02*
D03*
X743032D02*
D03*
X749500Y466500D02*
D03*
X755563D02*
D03*
X870469Y416500D02*
D03*
X876532D02*
D03*
X1155469Y1123500D02*
D03*
X1161532D02*
D03*
X1122906D02*
D03*
X1128969D02*
D03*
X1090344D02*
D03*
X1096407D02*
D03*
X789063Y484000D02*
D03*
X783000D02*
D03*
X756469Y532000D02*
D03*
X762532D02*
D03*
X762500Y512000D02*
D03*
X756437D02*
D03*
X886531Y494000D02*
D03*
X880468D02*
D03*
X886531Y512000D02*
D03*
X880468D02*
D03*
X756969Y550500D02*
D03*
X763032D02*
D03*
X956219Y1000500D02*
D03*
X950156D02*
D03*
X916031Y1060500D02*
D03*
X909968D02*
D03*
X914531Y1000500D02*
D03*
X908468D02*
D03*
X977063D02*
D03*
X971000D02*
D03*
X1137969Y991500D02*
D03*
X1144032D02*
D03*
X1006469Y994000D02*
D03*
X1012532D02*
D03*
X979031Y807500D02*
D03*
X972968D02*
D03*
X1162531Y991500D02*
D03*
X1156468D02*
D03*
X1026469Y993500D02*
D03*
X1032532D02*
D03*
X972937Y788362D02*
D03*
X979000D02*
D03*
X1073031Y892000D02*
D03*
X1066968D02*
D03*
X954958Y807500D02*
D03*
X961021D02*
D03*
X770969Y856500D02*
D03*
X777032D02*
D03*
X770969Y931000D02*
D03*
X777032D02*
D03*
X770969Y912375D02*
D03*
X777032D02*
D03*
X770969Y893750D02*
D03*
X777032D02*
D03*
X770969Y875125D02*
D03*
X777032D02*
D03*
X1119469Y693000D02*
D03*
X1125532D02*
D03*
X1043531Y893500D02*
D03*
X1037468D02*
D03*
X1038992Y585500D02*
D03*
X1045055D02*
D03*
X1037992Y640500D02*
D03*
X1044055D02*
D03*
X1073500Y744500D02*
D03*
X1079563D02*
D03*
X1066492Y640000D02*
D03*
X1072555D02*
D03*
X1052969Y744500D02*
D03*
X1059032D02*
D03*
X1073937Y763000D02*
D03*
X1080000D02*
D03*
X1053043Y762890D02*
D03*
X1059106D02*
D03*
X1072555Y581000D02*
D03*
X1066492D02*
D03*
X757531Y875000D02*
D03*
X751468D02*
D03*
X1117000Y528500D02*
D03*
X1123063D02*
D03*
X1090469Y547500D02*
D03*
X1096532D02*
D03*
X922531Y757500D02*
D03*
X916468D02*
D03*
X1116969Y547500D02*
D03*
X1123032D02*
D03*
X1096531Y528500D02*
D03*
X1090468D02*
D03*
X1076031Y721000D02*
D03*
X1069968D02*
D03*
X922531Y735000D02*
D03*
X916468D02*
D03*
X1044969Y721500D02*
D03*
X1051032D02*
D03*
X943010Y807500D02*
D03*
X936947D02*
D03*
X1161024Y578000D02*
D03*
X1167087D02*
D03*
X943031Y788362D02*
D03*
X936968D02*
D03*
X826031Y701000D02*
D03*
X819968D02*
D03*
X1161024Y599000D02*
D03*
X1167087D02*
D03*
X955437Y788362D02*
D03*
X961500D02*
D03*
X925000Y807500D02*
D03*
X918937D02*
D03*
X826031Y723500D02*
D03*
X819968D02*
D03*
X1022055Y640000D02*
D03*
X1015992D02*
D03*
X958269Y712264D02*
D03*
X952206D02*
D03*
X1161024Y620500D02*
D03*
X1167087D02*
D03*
X916531Y910000D02*
D03*
X910468D02*
D03*
X1073055Y598500D02*
D03*
X1066992D02*
D03*
X1161024Y641500D02*
D03*
X1167087D02*
D03*
X981024Y639500D02*
D03*
X974961D02*
D03*
X910969Y887000D02*
D03*
X917032D02*
D03*
X798469Y701000D02*
D03*
X804532D02*
D03*
X933337Y712264D02*
D03*
X939400D02*
D03*
X1073524Y620500D02*
D03*
X1067461D02*
D03*
X998587Y640000D02*
D03*
X992524D02*
D03*
X914469Y712264D02*
D03*
X920532D02*
D03*
D86*
X1046524Y607968D02*
D03*
Y614031D02*
D03*
X909500Y458531D02*
D03*
Y452468D02*
D03*
X936000Y1027531D02*
D03*
Y1021468D02*
D03*
X971000Y1028531D02*
D03*
Y1022468D02*
D03*
X1149000Y737031D02*
D03*
Y730968D02*
D03*
D87*
X955806Y1156154D02*
D03*
Y1143161D02*
D03*
X975097D02*
D03*
Y1156154D02*
D03*
X923607D02*
D03*
Y1143161D02*
D03*
X942898D02*
D03*
Y1156154D02*
D03*
X891408D02*
D03*
Y1143161D02*
D03*
X910699D02*
D03*
Y1156154D02*
D03*
X1052403D02*
D03*
Y1143161D02*
D03*
X1071694D02*
D03*
Y1156154D02*
D03*
X1020204D02*
D03*
Y1143161D02*
D03*
X1039495D02*
D03*
Y1156154D02*
D03*
X988005D02*
D03*
Y1143161D02*
D03*
X1007296D02*
D03*
Y1156154D02*
D03*
X1149000D02*
D03*
Y1143161D02*
D03*
X1168291D02*
D03*
Y1156154D02*
D03*
X1116801D02*
D03*
Y1143161D02*
D03*
X1136092D02*
D03*
Y1156154D02*
D03*
X1084602D02*
D03*
Y1143161D02*
D03*
X1103893D02*
D03*
Y1156154D02*
D03*
D88*
X739100Y1163300D02*
D03*
X747000D02*
D03*
X754900D02*
D03*
X762800D02*
D03*
X770700D02*
D03*
X778600D02*
D03*
X786500D02*
D03*
X794400D02*
D03*
X802300D02*
D03*
X810200D02*
D03*
X818100D02*
D03*
X826000D02*
D03*
X833900D02*
D03*
X841800D02*
D03*
X849700D02*
D03*
X857600D02*
D03*
Y1078700D02*
D03*
X849700D02*
D03*
X841800D02*
D03*
X833900D02*
D03*
X826000D02*
D03*
X818100D02*
D03*
X810200D02*
D03*
X802300D02*
D03*
X794400D02*
D03*
X786500D02*
D03*
X778600D02*
D03*
X770700D02*
D03*
X762800D02*
D03*
D89*
X864500Y1148800D02*
D03*
Y1140900D02*
D03*
Y1133000D02*
D03*
Y1125100D02*
D03*
Y1117200D02*
D03*
Y1109300D02*
D03*
Y1101400D02*
D03*
Y1093500D02*
D03*
D90*
X877732Y469000D02*
D03*
X894268D02*
D03*
X878232Y443500D02*
D03*
X894768D02*
D03*
X1062232Y824000D02*
D03*
X1078768D02*
D03*
D91*
X846000Y437500D02*
D03*
X807811D02*
D03*
D92*
X827567Y514772D02*
D03*
D93*
X822134Y498000D02*
D03*
X833000D02*
D03*
Y531543D02*
D03*
X822134D02*
D03*
D94*
X843650Y494083D02*
D03*
Y535461D02*
D03*
X811484D02*
D03*
Y494083D02*
D03*
D95*
X808158Y541937D02*
D03*
X810008D02*
D03*
X811543D02*
D03*
X813158D02*
D03*
X817685D02*
D03*
X826307D02*
D03*
X828827D02*
D03*
X837449D02*
D03*
X841976D02*
D03*
X843551D02*
D03*
X845126D02*
D03*
X846976D02*
D03*
Y487606D02*
D03*
X845165D02*
D03*
X843591D02*
D03*
X842016D02*
D03*
X837488D02*
D03*
X828827D02*
D03*
X826347D02*
D03*
X817685D02*
D03*
X813158D02*
D03*
X811583D02*
D03*
X810008D02*
D03*
X808158D02*
D03*
X820441D02*
D03*
X822016D02*
D03*
X823591D02*
D03*
X831583D02*
D03*
X833158D02*
D03*
X834732D02*
D03*
X820402Y541937D02*
D03*
X821976D02*
D03*
X823591D02*
D03*
X831583D02*
D03*
X833158D02*
D03*
X834732D02*
D03*
D96*
X848827Y539653D02*
D03*
Y538079D02*
D03*
Y536504D02*
D03*
Y534929D02*
D03*
Y533354D02*
D03*
Y531779D02*
D03*
Y527646D02*
D03*
Y525205D02*
D03*
Y523630D02*
D03*
Y522055D02*
D03*
Y519220D02*
D03*
Y516346D02*
D03*
Y514772D02*
D03*
Y513197D02*
D03*
Y511622D02*
D03*
Y508748D02*
D03*
Y507173D02*
D03*
Y504339D02*
D03*
Y501898D02*
D03*
Y497764D02*
D03*
Y496189D02*
D03*
Y494614D02*
D03*
Y493039D02*
D03*
Y491465D02*
D03*
Y489890D02*
D03*
X806307D02*
D03*
Y491465D02*
D03*
Y493039D02*
D03*
Y494614D02*
D03*
Y496189D02*
D03*
Y497764D02*
D03*
Y501898D02*
D03*
Y504339D02*
D03*
Y506110D02*
D03*
Y507685D02*
D03*
Y509260D02*
D03*
Y510835D02*
D03*
Y512409D02*
D03*
Y513984D02*
D03*
Y515559D02*
D03*
Y517134D02*
D03*
Y518709D02*
D03*
Y520283D02*
D03*
Y521858D02*
D03*
Y523433D02*
D03*
Y525205D02*
D03*
Y527646D02*
D03*
Y531779D02*
D03*
Y533354D02*
D03*
Y534929D02*
D03*
Y536504D02*
D03*
Y538079D02*
D03*
Y539653D02*
D03*
D97*
X822016Y540539D02*
D03*
X833118D02*
D03*
Y489004D02*
D03*
X822016D02*
D03*
D98*
X883496Y562437D02*
D03*
Y570311D02*
D03*
Y554563D02*
D03*
Y546689D02*
D03*
D99*
X901016Y579563D02*
D03*
Y537437D02*
D03*
D100*
X763909Y575000D02*
D03*
X1143614Y638000D02*
D03*
Y582500D02*
D03*
D101*
X800091Y575000D02*
D03*
X1107433Y638000D02*
D03*
Y582500D02*
D03*
D102*
X844146Y569000D02*
D03*
X824854D02*
D03*
D103*
X925000Y1039949D02*
D03*
X920000D02*
D03*
X915000D02*
D03*
X910000D02*
D03*
X925000Y1021051D02*
D03*
X920000D02*
D03*
X915000D02*
D03*
X910000D02*
D03*
D104*
X1113437Y1002181D02*
D03*
X1055563D02*
D03*
X1143311Y1088138D02*
D03*
X1169689D02*
D03*
X1052353D02*
D03*
X1078731D02*
D03*
X1097832D02*
D03*
X1124210D02*
D03*
X1006874D02*
D03*
X1033252D02*
D03*
D105*
X1104185Y1024819D02*
D03*
X1096311Y1024819D02*
D03*
X1088437D02*
D03*
X1064815D02*
D03*
X1072689D02*
D03*
X1080563D02*
D03*
X1152563Y1065500D02*
D03*
X1160437D02*
D03*
X1061605D02*
D03*
X1069479D02*
D03*
X1107084D02*
D03*
X1114958D02*
D03*
X1016126D02*
D03*
X1024000D02*
D03*
D106*
X1137425Y1011433D02*
D03*
X1139984D02*
D03*
X1142543D02*
D03*
X1145102D02*
D03*
X1147661D02*
D03*
X1150220D02*
D03*
X1152780D02*
D03*
X1155339D02*
D03*
X1157898D02*
D03*
X1160457D02*
D03*
X1163016D02*
D03*
X1165575D02*
D03*
X1137425Y1040567D02*
D03*
X1139984D02*
D03*
X1142543D02*
D03*
X1145102D02*
D03*
X1147661D02*
D03*
X1150220D02*
D03*
X1152780D02*
D03*
X1155339D02*
D03*
X1157898D02*
D03*
X1160457D02*
D03*
X1163016D02*
D03*
X1165575D02*
D03*
X1006425Y1012933D02*
D03*
X1008984D02*
D03*
X1011543D02*
D03*
X1014102D02*
D03*
X1016661D02*
D03*
X1019220D02*
D03*
X1021780D02*
D03*
X1024339D02*
D03*
X1026898D02*
D03*
X1029457D02*
D03*
X1032016D02*
D03*
X1034575D02*
D03*
X1006425Y1042067D02*
D03*
X1008984D02*
D03*
X1011543D02*
D03*
X1014102D02*
D03*
X1016661D02*
D03*
X1019220D02*
D03*
X1021780D02*
D03*
X1024339D02*
D03*
X1026898D02*
D03*
X1029457D02*
D03*
X1032016D02*
D03*
X1034575D02*
D03*
D107*
X1061000Y935500D02*
D03*
X1087772D02*
D03*
X1015614D02*
D03*
X1042386D02*
D03*
D108*
X1070449Y926642D02*
D03*
X1078323D02*
D03*
X1025063D02*
D03*
X1032937D02*
D03*
D109*
X771579Y806622D02*
D03*
Y804654D02*
D03*
Y802685D02*
D03*
Y800717D02*
D03*
Y798748D02*
D03*
Y796780D02*
D03*
Y794811D02*
D03*
Y792843D02*
D03*
Y790874D02*
D03*
Y788906D02*
D03*
Y786937D02*
D03*
Y784969D02*
D03*
Y783000D02*
D03*
Y781032D02*
D03*
Y779063D02*
D03*
Y777094D02*
D03*
Y775126D02*
D03*
Y773157D02*
D03*
Y771189D02*
D03*
Y769220D02*
D03*
Y767252D02*
D03*
Y765283D02*
D03*
Y763315D02*
D03*
Y761346D02*
D03*
Y759378D02*
D03*
X831421D02*
D03*
Y761346D02*
D03*
Y763315D02*
D03*
Y765283D02*
D03*
Y767252D02*
D03*
Y769220D02*
D03*
Y771189D02*
D03*
Y773157D02*
D03*
Y775126D02*
D03*
Y777094D02*
D03*
Y779063D02*
D03*
Y781032D02*
D03*
Y783000D02*
D03*
Y784969D02*
D03*
Y786937D02*
D03*
Y788906D02*
D03*
Y790874D02*
D03*
Y792843D02*
D03*
Y794811D02*
D03*
Y796780D02*
D03*
Y798748D02*
D03*
Y800717D02*
D03*
Y802685D02*
D03*
Y804654D02*
D03*
Y806622D02*
D03*
D110*
X777878Y753079D02*
D03*
X779846D02*
D03*
X781815D02*
D03*
X783783D02*
D03*
X785752D02*
D03*
X787720D02*
D03*
X789689D02*
D03*
X791657D02*
D03*
X793626D02*
D03*
X795594D02*
D03*
X797563D02*
D03*
X799532D02*
D03*
X801500D02*
D03*
X803469D02*
D03*
X805437D02*
D03*
X807406D02*
D03*
X809374D02*
D03*
X811343D02*
D03*
X813311D02*
D03*
X815280D02*
D03*
X817248D02*
D03*
X819217D02*
D03*
X821185D02*
D03*
X823154D02*
D03*
X825122D02*
D03*
Y812921D02*
D03*
X823154D02*
D03*
X821185D02*
D03*
X819217D02*
D03*
X817248D02*
D03*
X815280D02*
D03*
X813311D02*
D03*
X811343D02*
D03*
X809374D02*
D03*
X807406D02*
D03*
X805437D02*
D03*
X803469D02*
D03*
X801500D02*
D03*
X799532D02*
D03*
X797563D02*
D03*
X795594D02*
D03*
X793626D02*
D03*
X791657D02*
D03*
X789689D02*
D03*
X787720D02*
D03*
X785752D02*
D03*
X783783D02*
D03*
X781815D02*
D03*
X779846D02*
D03*
X777878D02*
D03*
D111*
X1151768Y716500D02*
D03*
X1135232D02*
D03*
D112*
X1078917Y851945D02*
D03*
Y861000D02*
D03*
Y870055D02*
D03*
D113*
X1056083Y861000D02*
D03*
D114*
X1111000Y844843D02*
D03*
Y825157D02*
D03*
Y874657D02*
D03*
Y894343D02*
D03*
D115*
X1175000Y779283D02*
D03*
Y772688D02*
D03*
Y708594D02*
D03*
Y702000D02*
D03*
D116*
Y787452D02*
D03*
Y764519D02*
D03*
Y716764D02*
D03*
Y693831D02*
D03*
D117*
X1165945Y785680D02*
D03*
Y766291D02*
D03*
Y714992D02*
D03*
Y695602D02*
D03*
D118*
X1164528Y781104D02*
D03*
Y778545D02*
D03*
Y775985D02*
D03*
Y773426D02*
D03*
Y770867D02*
D03*
Y710415D02*
D03*
Y707856D02*
D03*
Y705297D02*
D03*
Y702738D02*
D03*
Y700179D02*
D03*
D119*
X1133468Y783484D02*
D03*
Y777500D02*
D03*
X1146000Y783484D02*
D03*
Y777500D02*
D03*
D120*
X1121500Y741504D02*
D03*
Y729496D02*
D03*
D121*
X1146500Y693000D02*
D03*
X1139492D02*
D03*
D122*
X1038000Y864500D02*
D03*
Y857020D02*
D03*
X1026386D02*
D03*
Y860760D02*
D03*
Y864500D02*
D03*
D123*
X1148567Y510760D02*
D03*
X1143567D02*
D03*
X1138567D02*
D03*
X1133567D02*
D03*
X1128567D02*
D03*
X1123567D02*
D03*
X1118567D02*
D03*
X1113567D02*
D03*
X1108567D02*
D03*
X1103567D02*
D03*
X1098567D02*
D03*
X1093567D02*
D03*
X1088567D02*
D03*
X1083567D02*
D03*
X1079433Y489500D02*
D03*
X1083567Y443240D02*
D03*
X1088567D02*
D03*
X1093567D02*
D03*
X1098567D02*
D03*
X1103567D02*
D03*
X1108567D02*
D03*
X1113567D02*
D03*
X1118567D02*
D03*
X1123567D02*
D03*
X1128567D02*
D03*
X1133567D02*
D03*
X1138567D02*
D03*
X1143567D02*
D03*
X1148567D02*
D03*
D124*
X1079433Y499500D02*
D03*
Y494500D02*
D03*
Y484500D02*
D03*
Y479500D02*
D03*
Y474500D02*
D03*
Y469500D02*
D03*
Y464500D02*
D03*
Y459500D02*
D03*
Y454500D02*
D03*
D125*
X1119492Y477000D02*
D03*
D126*
X1139264Y860138D02*
D03*
Y858170D02*
D03*
Y856201D02*
D03*
Y854233D02*
D03*
Y852264D02*
D03*
Y850296D02*
D03*
Y848327D02*
D03*
Y846359D02*
D03*
Y844390D02*
D03*
Y842422D02*
D03*
Y840453D02*
D03*
Y838485D02*
D03*
Y930827D02*
D03*
Y928858D02*
D03*
Y926890D02*
D03*
Y924921D02*
D03*
Y922953D02*
D03*
Y920984D02*
D03*
Y919016D02*
D03*
Y917047D02*
D03*
Y915079D02*
D03*
Y913110D02*
D03*
Y911142D02*
D03*
Y909173D02*
D03*
D127*
X1169500Y849312D02*
D03*
X1157295D02*
D03*
X1169500Y920000D02*
D03*
X1157295D02*
D03*
D128*
X1072890Y433563D02*
D03*
Y427500D02*
D03*
X1062260Y433563D02*
D03*
Y427500D02*
D03*
D129*
X1069150Y433563D02*
D03*
Y427500D02*
D03*
X1066000Y433563D02*
D03*
Y427500D02*
D03*
D130*
X987122Y614240D02*
D03*
Y610500D02*
D03*
Y606760D02*
D03*
X976925D02*
D03*
Y610500D02*
D03*
Y614240D02*
D03*
X1119024Y612740D02*
D03*
Y609000D02*
D03*
Y605260D02*
D03*
X1108827D02*
D03*
Y609000D02*
D03*
Y612740D02*
D03*
D131*
X1031740Y722807D02*
D03*
X1024260D02*
D03*
X1028000Y711193D02*
D03*
D132*
X918063Y788815D02*
D03*
X924126D02*
D03*
X918063Y778185D02*
D03*
X924126D02*
D03*
X1137461Y615240D02*
D03*
X1143524D02*
D03*
X1137461Y604610D02*
D03*
X1143524D02*
D03*
D133*
X918063Y785075D02*
D03*
X924126D02*
D03*
X918063Y781925D02*
D03*
X924126D02*
D03*
X1137461Y611500D02*
D03*
X1143524D02*
D03*
X1137461Y608350D02*
D03*
X1143524D02*
D03*
D134*
X1038500Y764736D02*
D03*
X1033500D02*
D03*
X1028500D02*
D03*
X1023500D02*
D03*
X1038500Y744264D02*
D03*
X1033500D02*
D03*
X1028500D02*
D03*
X1023500D02*
D03*
D135*
X944500Y761500D02*
D03*
D136*
X937610Y771441D02*
D03*
X939579D02*
D03*
X941547D02*
D03*
X943516D02*
D03*
X945484D02*
D03*
X947453D02*
D03*
X949421D02*
D03*
X951390D02*
D03*
Y751559D02*
D03*
X949421D02*
D03*
X947453D02*
D03*
X945484D02*
D03*
X943516D02*
D03*
X941547D02*
D03*
X939579D02*
D03*
X937610D02*
D03*
D137*
X954441Y768390D02*
D03*
Y766421D02*
D03*
Y764453D02*
D03*
Y762484D02*
D03*
Y760516D02*
D03*
Y758547D02*
D03*
Y756579D02*
D03*
Y754610D02*
D03*
X934559D02*
D03*
Y756579D02*
D03*
Y758547D02*
D03*
Y760516D02*
D03*
Y762484D02*
D03*
Y764453D02*
D03*
Y766421D02*
D03*
Y768390D02*
D03*
D138*
X1019595Y611484D02*
D03*
D139*
X1011524Y606563D02*
D03*
Y608532D02*
D03*
Y610500D02*
D03*
Y612469D02*
D03*
Y614437D02*
D03*
Y616406D02*
D03*
X1027665D02*
D03*
Y614437D02*
D03*
Y612469D02*
D03*
Y610500D02*
D03*
Y608532D02*
D03*
Y606563D02*
D03*
D140*
X1014673Y619555D02*
D03*
X1016642D02*
D03*
X1018610D02*
D03*
X1020579D02*
D03*
X1022547D02*
D03*
X1024516D02*
D03*
Y603413D02*
D03*
X1022547D02*
D03*
X1020579D02*
D03*
X1018610D02*
D03*
X1016642D02*
D03*
X1014673D02*
D03*
D141*
X951331Y733350D02*
D03*
X942669Y739650D02*
D03*
Y733350D02*
D03*
X951331Y739650D02*
D03*
D142*
X981020Y581500D02*
D03*
X993028D02*
D03*
X1011020D02*
D03*
X1023028D02*
D03*
X951000Y868000D02*
D03*
X938992D02*
D03*
D143*
X972000Y712500D02*
D03*
X982039D02*
D03*
X910980Y866500D02*
D03*
X921020D02*
D03*
D144*
X1088587Y624740D02*
D03*
Y617260D02*
D03*
X1096461Y621000D02*
D03*
X1088587Y599240D02*
D03*
Y591760D02*
D03*
X1096461Y595500D02*
D03*
D145*
X936850Y909358D02*
D03*
Y891642D02*
D03*
X968150Y909358D02*
D03*
Y891642D02*
D03*
D146*
X805740Y723000D02*
D03*
X802000D02*
D03*
X798260D02*
D03*
D147*
X829000Y1012000D02*
D03*
X839000D02*
D03*
X829000Y1002000D02*
D03*
X839000D02*
D03*
X829000Y992000D02*
D03*
X788500Y1010500D02*
D03*
X798500D02*
D03*
X788500Y1000500D02*
D03*
X798500D02*
D03*
X788500Y990500D02*
D03*
X959500Y604500D02*
D03*
Y594500D02*
D03*
Y584500D02*
D03*
Y574500D02*
D03*
Y564500D02*
D03*
Y554500D02*
D03*
Y544500D02*
D03*
Y534500D02*
D03*
Y524500D02*
D03*
Y514500D02*
D03*
Y504500D02*
D03*
Y494500D02*
D03*
Y484500D02*
D03*
Y474500D02*
D03*
Y464500D02*
D03*
Y454500D02*
D03*
Y444500D02*
D03*
Y434500D02*
D03*
Y424500D02*
D03*
Y414500D02*
D03*
Y404500D02*
D03*
X890000Y1021000D02*
D03*
Y1011000D02*
D03*
Y1031000D02*
D03*
Y1041000D02*
D03*
Y1051000D02*
D03*
Y1061000D02*
D03*
X1013500Y832000D02*
D03*
X1023500Y822000D02*
D03*
Y832000D02*
D03*
X1033500Y822000D02*
D03*
Y832000D02*
D03*
X896500Y1095000D02*
D03*
X886500D02*
D03*
X778000Y1052000D02*
D03*
X788000D02*
D03*
X798000D02*
D03*
X808000D02*
D03*
X828000D02*
D03*
X818000D02*
D03*
X1043500Y473500D02*
D03*
Y483500D02*
D03*
Y493500D02*
D03*
X745500Y431000D02*
D03*
X755500D02*
D03*
X765500D02*
D03*
X737500Y512000D02*
D03*
Y522000D02*
D03*
Y532000D02*
D03*
X936000Y945500D02*
D03*
X926000D02*
D03*
X916000D02*
D03*
X906000D02*
D03*
X896000D02*
D03*
X886000D02*
D03*
X876000D02*
D03*
X866000D02*
D03*
X856000D02*
D03*
X846000D02*
D03*
X836000D02*
D03*
X826000D02*
D03*
X816000D02*
D03*
X806000D02*
D03*
X796000D02*
D03*
X786000D02*
D03*
X731500Y821500D02*
D03*
Y831500D02*
D03*
Y841500D02*
D03*
Y851500D02*
D03*
Y861500D02*
D03*
Y871500D02*
D03*
Y881500D02*
D03*
X1011500D02*
D03*
X731500Y713000D02*
D03*
Y723000D02*
D03*
Y733000D02*
D03*
Y743000D02*
D03*
Y753000D02*
D03*
Y763000D02*
D03*
Y773000D02*
D03*
X892500Y736500D02*
D03*
Y746500D02*
D03*
Y756500D02*
D03*
Y766500D02*
D03*
Y776500D02*
D03*
Y786500D02*
D03*
Y796500D02*
D03*
Y806500D02*
D03*
Y816500D02*
D03*
Y826500D02*
D03*
Y836500D02*
D03*
Y846500D02*
D03*
Y856500D02*
D03*
Y866500D02*
D03*
Y876500D02*
D03*
Y886500D02*
D03*
X793500Y668000D02*
D03*
X783500D02*
D03*
X773500D02*
D03*
X763500D02*
D03*
X753500D02*
D03*
X743500D02*
D03*
X733500D02*
D03*
X882000D02*
D03*
X872000D02*
D03*
X862000D02*
D03*
X852000D02*
D03*
X842000D02*
D03*
X832000D02*
D03*
X822000D02*
D03*
X1043500Y415500D02*
D03*
Y425500D02*
D03*
Y435500D02*
D03*
Y445500D02*
D03*
Y455500D02*
D03*
X1086000Y405500D02*
D03*
X1076000D02*
D03*
X1066000D02*
D03*
X869500Y776000D02*
D03*
Y766000D02*
D03*
Y756000D02*
D03*
Y746000D02*
D03*
Y736000D02*
D03*
Y726000D02*
D03*
Y716000D02*
D03*
X970500Y668000D02*
D03*
X960500D02*
D03*
X950500D02*
D03*
X940500D02*
D03*
X930500D02*
D03*
X920500D02*
D03*
X910500D02*
D03*
X1108000Y405500D02*
D03*
X1118000D02*
D03*
X1128000D02*
D03*
X1138000D02*
D03*
X1148000D02*
D03*
X867500Y883000D02*
D03*
Y893000D02*
D03*
Y903000D02*
D03*
Y913000D02*
D03*
Y923000D02*
D03*
X969500Y738000D02*
D03*
X979500Y748000D02*
D03*
X969500D02*
D03*
X979500Y758000D02*
D03*
X969500D02*
D03*
X768000Y703000D02*
D03*
X778000Y713000D02*
D03*
X768000D02*
D03*
X778000Y723000D02*
D03*
X768000D02*
D03*
X1053500Y546000D02*
D03*
X1043500Y536000D02*
D03*
X1053500D02*
D03*
X1043500Y526000D02*
D03*
X1053500D02*
D03*
D148*
X839000Y992000D02*
D03*
X798500Y990500D02*
D03*
X959500Y614500D02*
D03*
X890000Y1001000D02*
D03*
X1043500Y503500D02*
D03*
X737500Y542000D02*
D03*
X731500Y811500D02*
D03*
X1011500Y891500D02*
D03*
X731500Y703000D02*
D03*
X892500Y896500D02*
D03*
X1043500Y405500D02*
D03*
X869500Y786000D02*
D03*
X867500Y873000D02*
D03*
X979500Y738000D02*
D03*
X778000Y703000D02*
D03*
X1043500Y546000D02*
D03*
D149*
X1013500Y822000D02*
D03*
X906500Y1095000D02*
D03*
X838000Y1052000D02*
D03*
X775500Y431000D02*
D03*
X776000Y945500D02*
D03*
X803500Y668000D02*
D03*
X892000D02*
D03*
X1056000Y405500D02*
D03*
X980500Y668000D02*
D03*
X1098000Y405500D02*
D03*
D150*
X952000Y1038000D02*
D03*
X957000D02*
D03*
X952000Y1033000D02*
D03*
X957000D02*
D03*
X952000Y1028000D02*
D03*
X957000D02*
D03*
X952000Y1023000D02*
D03*
D151*
X957000D02*
D03*
D152*
X1144185Y847737D02*
D03*
Y850886D02*
D03*
Y844587D02*
D03*
Y854036D02*
D03*
Y841438D02*
D03*
Y857186D02*
D03*
Y838288D02*
D03*
Y860335D02*
D03*
X1146941Y846162D02*
D03*
Y852461D02*
D03*
Y843012D02*
D03*
Y855611D02*
D03*
Y839863D02*
D03*
Y858760D02*
D03*
X1144185Y918425D02*
D03*
Y921575D02*
D03*
Y915276D02*
D03*
Y924724D02*
D03*
Y912126D02*
D03*
Y927874D02*
D03*
Y908976D02*
D03*
Y931024D02*
D03*
X1146941Y916850D02*
D03*
Y923150D02*
D03*
Y913701D02*
D03*
Y926299D02*
D03*
Y910551D02*
D03*
Y929449D02*
D03*
D153*
X1148713Y866123D02*
D03*
Y832501D02*
D03*
X1167335Y866123D02*
D03*
Y832501D02*
D03*
X1148713Y936811D02*
D03*
Y903189D02*
D03*
X1167335Y936811D02*
D03*
Y903189D02*
D03*
D154*
X802000Y715000D02*
D03*
X1023773Y595232D02*
D03*
X1020839Y598166D02*
D03*
X954223Y779150D02*
D03*
X957343Y776075D02*
D03*
X963500Y774500D02*
D03*
X946500Y782000D02*
D03*
X967000Y784000D02*
D03*
X960500Y782500D02*
D03*
X934500Y771000D02*
D03*
X973312Y767888D02*
D03*
X1006500Y626500D02*
D03*
X1100500Y579500D02*
D03*
X1093900Y582000D02*
D03*
X769500Y1098000D02*
D03*
X783000Y1097000D02*
D03*
X902500Y1014000D02*
D03*
X911500Y1013500D02*
D03*
X935000Y747000D02*
D03*
X944925Y713070D02*
D03*
X941000Y721500D02*
D03*
X937700Y729500D02*
D03*
X932000Y698000D02*
D03*
X925000Y711600D02*
D03*
X916806Y697806D02*
D03*
X974961Y631000D02*
D03*
X938500Y634500D02*
D03*
X997000Y605000D02*
D03*
X982000Y608925D02*
D03*
X1019500Y590500D02*
D03*
X1045055Y592200D02*
D03*
X1011700Y603500D02*
D03*
X777025Y921688D02*
D03*
X772500Y966000D02*
D03*
X766700Y1047500D02*
D03*
Y1053700D02*
D03*
X767929Y753500D02*
D03*
X803400Y480000D02*
D03*
X816100D02*
D03*
X788100Y779700D02*
D03*
X780900Y781225D02*
D03*
X930500Y725900D02*
D03*
X982700Y1020300D02*
D03*
X994500Y1016000D02*
D03*
X982700D02*
D03*
X946800Y794100D02*
D03*
X832600Y711063D02*
D03*
X1016891Y747909D02*
D03*
X1026200Y546000D02*
D03*
X1143567Y517400D02*
D03*
X770700Y1070400D02*
D03*
X1122900Y832900D02*
D03*
X1132700Y771700D02*
D03*
X1151600Y777700D02*
D03*
X982100Y840800D02*
D03*
X983700Y836300D02*
D03*
X931500Y807500D02*
D03*
X957400Y818700D02*
D03*
X949900Y745400D02*
D03*
X924979Y767100D02*
D03*
X911500Y749100D02*
D03*
X931379Y773775D02*
D03*
X936968Y782268D02*
D03*
X1067000Y914600D02*
D03*
X806400Y459700D02*
D03*
X786200D02*
D03*
X922600D02*
D03*
X830011D02*
D03*
X933635Y794000D02*
D03*
X1039000Y827000D02*
D03*
X1155200Y770300D02*
D03*
X929700Y759800D02*
D03*
X925000Y773700D02*
D03*
X1073055Y607500D02*
D03*
X976800Y706900D02*
D03*
X926118Y795282D02*
D03*
X928304Y781200D02*
D03*
X928000Y754610D02*
D03*
X1170300Y750000D02*
D03*
X1133900Y922700D02*
D03*
X1164800Y738500D02*
D03*
X988600Y624647D02*
D03*
X1083600Y439400D02*
D03*
X1102100Y416100D02*
D03*
X1123700Y608540D02*
D03*
X1096461Y599139D02*
D03*
X1074800Y491700D02*
D03*
X1086700Y459700D02*
D03*
X1121400Y592000D02*
D03*
X1130236Y615240D02*
D03*
X1038000Y537100D02*
D03*
X1073600Y615200D02*
D03*
X821185Y819500D02*
D03*
X829100Y826100D02*
D03*
X877500Y913400D02*
D03*
X937200Y936100D02*
D03*
X1173200Y963300D02*
D03*
X835675Y700170D02*
D03*
X809700Y798775D02*
D03*
X779089Y797300D02*
D03*
X725700Y894900D02*
D03*
X1033616Y1018700D02*
D03*
X1119600Y933700D02*
D03*
X767025Y532000D02*
D03*
X898500Y865700D02*
D03*
X856800Y801300D02*
D03*
X844900Y681100D02*
D03*
X845602Y502500D02*
D03*
X883400Y520100D02*
D03*
X836376Y452500D02*
D03*
X869500Y535500D02*
D03*
X839500Y527200D02*
D03*
X878100Y523700D02*
D03*
X814200Y504400D02*
D03*
X911600Y859253D02*
D03*
X1086600Y518400D02*
D03*
X786100Y790900D02*
D03*
X911600Y827400D02*
D03*
X728100Y456800D02*
D03*
X746100Y747100D02*
D03*
X876000Y486822D02*
D03*
X907000Y482100D02*
D03*
X771700Y512000D02*
D03*
X785900Y496400D02*
D03*
X842100Y510000D02*
D03*
X770400Y525200D02*
D03*
X832900Y682700D02*
D03*
X814300Y759700D02*
D03*
X973800Y780600D02*
D03*
X997800Y986900D02*
D03*
X822300Y707700D02*
D03*
X771500Y824000D02*
D03*
X760300Y841300D02*
D03*
X756000Y806400D02*
D03*
X873200Y882900D02*
D03*
X777500Y741800D02*
D03*
X801869Y761573D02*
D03*
X832627Y735000D02*
D03*
X817000Y709200D02*
D03*
X807800Y759800D02*
D03*
X896100Y725500D02*
D03*
X849600Y688100D02*
D03*
X909400Y717700D02*
D03*
X821185Y759800D02*
D03*
X852300Y703900D02*
D03*
X856800Y701800D02*
D03*
X827305Y909905D02*
D03*
X812275Y900725D02*
D03*
X806100Y898700D02*
D03*
X802975Y909200D02*
D03*
X808800Y912925D02*
D03*
X797700Y903500D02*
D03*
X860200Y901200D02*
D03*
X796700Y891875D02*
D03*
X822000Y921500D02*
D03*
X801800Y919100D02*
D03*
X795900Y933700D02*
D03*
X790900Y806200D02*
D03*
X1131650Y529650D02*
D03*
X1123567Y516500D02*
D03*
X1091967Y493900D02*
D03*
X1090500Y447600D02*
D03*
X804000Y544500D02*
D03*
X811600Y514400D02*
D03*
X793000Y510600D02*
D03*
X839500Y778900D02*
D03*
X877600Y874800D02*
D03*
X774500Y819900D02*
D03*
X1154800Y1002400D02*
D03*
X1021780Y1022500D02*
D03*
X904400Y725500D02*
D03*
X1058900Y431500D02*
D03*
X978300Y403800D02*
D03*
X1121500Y767700D02*
D03*
X1158300Y781104D02*
D03*
X791300Y789100D02*
D03*
X819800Y787500D02*
D03*
X898200Y717800D02*
D03*
X808200Y766800D02*
D03*
X1121900Y898000D02*
D03*
X1113600Y517200D02*
D03*
X1151768Y699400D02*
D03*
X1170300Y729300D02*
D03*
X1111100Y504500D02*
D03*
X786500Y1137000D02*
D03*
X794400Y1148100D02*
D03*
X841800Y1146200D02*
D03*
X738100Y888300D02*
D03*
X737700Y791500D02*
D03*
X782800Y759800D02*
D03*
X912300Y1152400D02*
D03*
X1032500Y611600D02*
D03*
X1041800D02*
D03*
X1125300Y638000D02*
D03*
X1133700Y608400D02*
D03*
X1054600Y732900D02*
D03*
X992400Y635400D02*
D03*
X1053600Y739800D02*
D03*
X1019400D02*
D03*
X1035600Y722900D02*
D03*
X1078200Y419800D02*
D03*
X1069600Y437100D02*
D03*
X1006400Y403700D02*
D03*
X749200Y754100D02*
D03*
X777200Y747100D02*
D03*
X1093700Y461900D02*
D03*
X1073400Y482300D02*
D03*
X1083300Y489400D02*
D03*
X1101250Y457083D02*
D03*
X1103400Y452300D02*
D03*
X1126900Y505400D02*
D03*
X1128200Y417700D02*
D03*
X964000Y1030800D02*
D03*
X780700Y497800D02*
D03*
X797100Y496372D02*
D03*
X787700Y504700D02*
D03*
X1027200Y414000D02*
D03*
X953100Y995600D02*
D03*
X993400Y977300D02*
D03*
X1002800Y746500D02*
D03*
X1097400Y468300D02*
D03*
X780900Y763600D02*
D03*
X779800Y790800D02*
D03*
X825900Y715900D02*
D03*
X1101300Y490100D02*
D03*
X1092300Y489500D02*
D03*
X1118000Y460500D02*
D03*
X1108700Y528300D02*
D03*
X1135800Y517400D02*
D03*
X983300Y444500D02*
D03*
X1134400Y918300D02*
D03*
X786800Y746400D02*
D03*
X962500Y822500D02*
D03*
X1104600Y836100D02*
D03*
X1101300Y463300D02*
D03*
X822163Y780337D02*
D03*
X768400Y837200D02*
D03*
X1175500Y976000D02*
D03*
X1106200Y991500D02*
D03*
X1126300D02*
D03*
X1093800Y480663D02*
D03*
X811558Y521858D02*
D03*
X779800Y562600D02*
D03*
X833000D02*
D03*
X851900Y462800D02*
D03*
X764600D02*
D03*
X1172625Y823625D02*
D03*
X960900Y746600D02*
D03*
X1126300Y1011400D02*
D03*
X916757Y720775D02*
D03*
X1147661Y1005100D02*
D03*
X762100Y833300D02*
D03*
X884700Y848700D02*
D03*
X836724Y812699D02*
D03*
X807825Y903125D02*
D03*
X795900Y938500D02*
D03*
X823154Y806100D02*
D03*
X759000Y818400D02*
D03*
D155*
X948831Y757169D02*
D03*
X944500D02*
D03*
X940169D02*
D03*
X948831Y761500D02*
D03*
X944500D02*
D03*
X940169D02*
D03*
X948831Y765831D02*
D03*
X944500D02*
D03*
X940169D02*
D03*
X1021760Y613650D02*
D03*
Y609319D02*
D03*
X1017429Y613650D02*
D03*
Y609319D02*
D03*
M02*
