G04*
G04 #@! TF.GenerationSoftware,Altium Limited,Altium Designer,20.0.9 (164)*
G04*
G04 Layer_Color=128*
%FSLAX25Y25*%
%MOIN*%
G70*
G01*
G75*
%ADD170C,0.00200*%
D170*
X827228Y1012000D02*
X830772D01*
X829000Y1010228D02*
Y1013772D01*
X837228Y1012000D02*
X840772D01*
X839000Y1010228D02*
Y1013772D01*
X827228Y1002000D02*
X830772D01*
X829000Y1000228D02*
Y1003772D01*
X837228Y1002000D02*
X840772D01*
X839000Y1000228D02*
Y1003772D01*
X827228Y992000D02*
X830772D01*
X829000Y990228D02*
Y993772D01*
X837228Y992000D02*
X840772D01*
X839000Y990228D02*
Y993772D01*
X786728Y1010500D02*
X790272D01*
X788500Y1008728D02*
Y1012272D01*
X796728Y1010500D02*
X800272D01*
X798500Y1008728D02*
Y1012272D01*
X786728Y1000500D02*
X790272D01*
X788500Y998728D02*
Y1002272D01*
X796728Y1000500D02*
X800272D01*
X798500Y998728D02*
Y1002272D01*
X786728Y990500D02*
X790272D01*
X788500Y988728D02*
Y992272D01*
X796728Y990500D02*
X800272D01*
X798500Y988728D02*
Y992272D01*
X957728Y614500D02*
X961272D01*
X959500Y612728D02*
Y616272D01*
X957728Y604500D02*
X961272D01*
X959500Y602728D02*
Y606272D01*
X957728Y594500D02*
X961272D01*
X959500Y592728D02*
Y596272D01*
X957728Y584500D02*
X961272D01*
X959500Y582728D02*
Y586272D01*
X957728Y574500D02*
X961272D01*
X959500Y572728D02*
Y576272D01*
X957728Y564500D02*
X961272D01*
X959500Y562728D02*
Y566272D01*
X957728Y554500D02*
X961272D01*
X959500Y552728D02*
Y556272D01*
X957728Y544500D02*
X961272D01*
X959500Y542728D02*
Y546272D01*
X957728Y534500D02*
X961272D01*
X959500Y532728D02*
Y536272D01*
X957728Y524500D02*
X961272D01*
X959500Y522728D02*
Y526272D01*
X957728Y514500D02*
X961272D01*
X959500Y512728D02*
Y516272D01*
X957728Y504500D02*
X961272D01*
X959500Y502728D02*
Y506272D01*
X957728Y494500D02*
X961272D01*
X959500Y492728D02*
Y496272D01*
X957728Y484500D02*
X961272D01*
X959500Y482728D02*
Y486272D01*
X957728Y474500D02*
X961272D01*
X959500Y472728D02*
Y476272D01*
X957728Y464500D02*
X961272D01*
X959500Y462728D02*
Y466272D01*
X957728Y454500D02*
X961272D01*
X959500Y452728D02*
Y456272D01*
X957728Y444500D02*
X961272D01*
X959500Y442728D02*
Y446272D01*
X957728Y434500D02*
X961272D01*
X959500Y432728D02*
Y436272D01*
X957728Y424500D02*
X961272D01*
X959500Y422728D02*
Y426272D01*
X957728Y414500D02*
X961272D01*
X959500Y412728D02*
Y416272D01*
X957728Y404500D02*
X961272D01*
X959500Y402728D02*
Y406272D01*
X888228Y1021000D02*
X891772D01*
X890000Y1019228D02*
Y1022772D01*
X888228Y1001000D02*
X891772D01*
X890000Y999228D02*
Y1002772D01*
X888228Y1011000D02*
X891772D01*
X890000Y1009228D02*
Y1012772D01*
X888228Y1031000D02*
X891772D01*
X890000Y1029228D02*
Y1032772D01*
X888228Y1041000D02*
X891772D01*
X890000Y1039228D02*
Y1042772D01*
X888228Y1051000D02*
X891772D01*
X890000Y1049228D02*
Y1052772D01*
X888228Y1061000D02*
X891772D01*
X890000Y1059228D02*
Y1062772D01*
X1011728Y822000D02*
X1015272D01*
X1013500Y820228D02*
Y823772D01*
X1011728Y832000D02*
X1015272D01*
X1013500Y830228D02*
Y833772D01*
X1021728Y822000D02*
X1025272D01*
X1023500Y820228D02*
Y823772D01*
X1021728Y832000D02*
X1025272D01*
X1023500Y830228D02*
Y833772D01*
X1031728Y822000D02*
X1035272D01*
X1033500Y820228D02*
Y823772D01*
X1031728Y832000D02*
X1035272D01*
X1033500Y830228D02*
Y833772D01*
X904728Y1095000D02*
X908272D01*
X906500Y1093228D02*
Y1096772D01*
X894728Y1095000D02*
X898272D01*
X896500Y1093228D02*
Y1096772D01*
X884728Y1095000D02*
X888272D01*
X886500Y1093228D02*
Y1096772D01*
X776228Y1052000D02*
X779772D01*
X778000Y1050228D02*
Y1053772D01*
X786228Y1052000D02*
X789772D01*
X788000Y1050228D02*
Y1053772D01*
X796228Y1052000D02*
X799772D01*
X798000Y1050228D02*
Y1053772D01*
X806228Y1052000D02*
X809772D01*
X808000Y1050228D02*
Y1053772D01*
X826228Y1052000D02*
X829772D01*
X828000Y1050228D02*
Y1053772D01*
X836228Y1052000D02*
X839772D01*
X838000Y1050228D02*
Y1053772D01*
X816228Y1052000D02*
X819772D01*
X818000Y1050228D02*
Y1053772D01*
X1041728Y473500D02*
X1045272D01*
X1043500Y471728D02*
Y475272D01*
X1041728Y483500D02*
X1045272D01*
X1043500Y481728D02*
Y485272D01*
X1041728Y493500D02*
X1045272D01*
X1043500Y491728D02*
Y495272D01*
X1041728Y503500D02*
X1045272D01*
X1043500Y501728D02*
Y505272D01*
X743728Y431000D02*
X747272D01*
X745500Y429228D02*
Y432772D01*
X753728Y431000D02*
X757272D01*
X755500Y429228D02*
Y432772D01*
X763728Y431000D02*
X767272D01*
X765500Y429228D02*
Y432772D01*
X773728Y431000D02*
X777272D01*
X775500Y429228D02*
Y432772D01*
X735728Y512000D02*
X739272D01*
X737500Y510228D02*
Y513772D01*
X735728Y522000D02*
X739272D01*
X737500Y520228D02*
Y523772D01*
X735728Y532000D02*
X739272D01*
X737500Y530228D02*
Y533772D01*
X735728Y542000D02*
X739272D01*
X737500Y540228D02*
Y543772D01*
X950819Y1038000D02*
X953181D01*
X952000Y1036819D02*
Y1039181D01*
X955819Y1038000D02*
X958181D01*
X957000Y1036819D02*
Y1039181D01*
X950819Y1033000D02*
X953181D01*
X952000Y1031819D02*
Y1034181D01*
X955819Y1033000D02*
X958181D01*
X957000Y1031819D02*
Y1034181D01*
X950819Y1028000D02*
X953181D01*
X952000Y1026819D02*
Y1029181D01*
X955819Y1028000D02*
X958181D01*
X957000Y1026819D02*
Y1029181D01*
X950819Y1023000D02*
X953181D01*
X952000Y1021819D02*
Y1024181D01*
X955819Y1023000D02*
X958181D01*
X957000Y1021819D02*
Y1024181D01*
X774228Y945500D02*
X777772D01*
X776000Y943728D02*
Y947272D01*
X934228Y945500D02*
X937772D01*
X936000Y943728D02*
Y947272D01*
X924228Y945500D02*
X927772D01*
X926000Y943728D02*
Y947272D01*
X914228Y945500D02*
X917772D01*
X916000Y943728D02*
Y947272D01*
X904228Y945500D02*
X907772D01*
X906000Y943728D02*
Y947272D01*
X894228Y945500D02*
X897772D01*
X896000Y943728D02*
Y947272D01*
X884228Y945500D02*
X887772D01*
X886000Y943728D02*
Y947272D01*
X874228Y945500D02*
X877772D01*
X876000Y943728D02*
Y947272D01*
X864228Y945500D02*
X867772D01*
X866000Y943728D02*
Y947272D01*
X854228Y945500D02*
X857772D01*
X856000Y943728D02*
Y947272D01*
X844228Y945500D02*
X847772D01*
X846000Y943728D02*
Y947272D01*
X834228Y945500D02*
X837772D01*
X836000Y943728D02*
Y947272D01*
X824228Y945500D02*
X827772D01*
X826000Y943728D02*
Y947272D01*
X814228Y945500D02*
X817772D01*
X816000Y943728D02*
Y947272D01*
X804228Y945500D02*
X807772D01*
X806000Y943728D02*
Y947272D01*
X794228Y945500D02*
X797772D01*
X796000Y943728D02*
Y947272D01*
X784228Y945500D02*
X787772D01*
X786000Y943728D02*
Y947272D01*
X729728Y811500D02*
X733272D01*
X731500Y809728D02*
Y813272D01*
X729728Y821500D02*
X733272D01*
X731500Y819728D02*
Y823272D01*
X729728Y831500D02*
X733272D01*
X731500Y829728D02*
Y833272D01*
X729728Y841500D02*
X733272D01*
X731500Y839728D02*
Y843272D01*
X729728Y851500D02*
X733272D01*
X731500Y849728D02*
Y853272D01*
X729728Y861500D02*
X733272D01*
X731500Y859728D02*
Y863272D01*
X729728Y871500D02*
X733272D01*
X731500Y869728D02*
Y873272D01*
X729728Y881500D02*
X733272D01*
X731500Y879728D02*
Y883272D01*
X1009728Y891500D02*
X1013272D01*
X1011500Y889728D02*
Y893272D01*
X1009728Y881500D02*
X1013272D01*
X1011500Y879728D02*
Y883272D01*
X729728Y703000D02*
X733272D01*
X731500Y701228D02*
Y704772D01*
X729728Y713000D02*
X733272D01*
X731500Y711228D02*
Y714772D01*
X729728Y723000D02*
X733272D01*
X731500Y721228D02*
Y724772D01*
X729728Y733000D02*
X733272D01*
X731500Y731228D02*
Y734772D01*
X729728Y743000D02*
X733272D01*
X731500Y741228D02*
Y744772D01*
X729728Y753000D02*
X733272D01*
X731500Y751228D02*
Y754772D01*
X729728Y763000D02*
X733272D01*
X731500Y761228D02*
Y764772D01*
X729728Y773000D02*
X733272D01*
X731500Y771228D02*
Y774772D01*
X890728Y896500D02*
X894272D01*
X892500Y894728D02*
Y898272D01*
X890728Y736500D02*
X894272D01*
X892500Y734728D02*
Y738272D01*
X890728Y746500D02*
X894272D01*
X892500Y744728D02*
Y748272D01*
X890728Y756500D02*
X894272D01*
X892500Y754728D02*
Y758272D01*
X890728Y766500D02*
X894272D01*
X892500Y764728D02*
Y768272D01*
X890728Y776500D02*
X894272D01*
X892500Y774728D02*
Y778272D01*
X890728Y786500D02*
X894272D01*
X892500Y784728D02*
Y788272D01*
X890728Y796500D02*
X894272D01*
X892500Y794728D02*
Y798272D01*
X890728Y806500D02*
X894272D01*
X892500Y804728D02*
Y808272D01*
X890728Y816500D02*
X894272D01*
X892500Y814728D02*
Y818272D01*
X890728Y826500D02*
X894272D01*
X892500Y824728D02*
Y828272D01*
X890728Y836500D02*
X894272D01*
X892500Y834728D02*
Y838272D01*
X890728Y846500D02*
X894272D01*
X892500Y844728D02*
Y848272D01*
X890728Y856500D02*
X894272D01*
X892500Y854728D02*
Y858272D01*
X890728Y866500D02*
X894272D01*
X892500Y864728D02*
Y868272D01*
X890728Y876500D02*
X894272D01*
X892500Y874728D02*
Y878272D01*
X890728Y886500D02*
X894272D01*
X892500Y884728D02*
Y888272D01*
X801728Y668000D02*
X805272D01*
X803500Y666228D02*
Y669772D01*
X791728Y668000D02*
X795272D01*
X793500Y666228D02*
Y669772D01*
X781728Y668000D02*
X785272D01*
X783500Y666228D02*
Y669772D01*
X771728Y668000D02*
X775272D01*
X773500Y666228D02*
Y669772D01*
X761728Y668000D02*
X765272D01*
X763500Y666228D02*
Y669772D01*
X751728Y668000D02*
X755272D01*
X753500Y666228D02*
Y669772D01*
X741728Y668000D02*
X745272D01*
X743500Y666228D02*
Y669772D01*
X731728Y668000D02*
X735272D01*
X733500Y666228D02*
Y669772D01*
X890228Y668000D02*
X893772D01*
X892000Y666228D02*
Y669772D01*
X880228Y668000D02*
X883772D01*
X882000Y666228D02*
Y669772D01*
X870228Y668000D02*
X873772D01*
X872000Y666228D02*
Y669772D01*
X860228Y668000D02*
X863772D01*
X862000Y666228D02*
Y669772D01*
X850228Y668000D02*
X853772D01*
X852000Y666228D02*
Y669772D01*
X840228Y668000D02*
X843772D01*
X842000Y666228D02*
Y669772D01*
X830228Y668000D02*
X833772D01*
X832000Y666228D02*
Y669772D01*
X820228Y668000D02*
X823772D01*
X822000Y666228D02*
Y669772D01*
X1041728Y405500D02*
X1045272D01*
X1043500Y403728D02*
Y407272D01*
X1041728Y415500D02*
X1045272D01*
X1043500Y413728D02*
Y417272D01*
X1041728Y425500D02*
X1045272D01*
X1043500Y423728D02*
Y427272D01*
X1041728Y435500D02*
X1045272D01*
X1043500Y433728D02*
Y437272D01*
X1041728Y445500D02*
X1045272D01*
X1043500Y443728D02*
Y447272D01*
X1041728Y455500D02*
X1045272D01*
X1043500Y453728D02*
Y457272D01*
X1143398Y847737D02*
X1144972D01*
X1144185Y846949D02*
Y848524D01*
X1143398Y850886D02*
X1144972D01*
X1144185Y850099D02*
Y851674D01*
X1143398Y844587D02*
X1144972D01*
X1144185Y843800D02*
Y845375D01*
X1143398Y854036D02*
X1144972D01*
X1144185Y853249D02*
Y854823D01*
X1143398Y841438D02*
X1144972D01*
X1144185Y840650D02*
Y842225D01*
X1143398Y857186D02*
X1144972D01*
X1144185Y856398D02*
Y857973D01*
X1143398Y838288D02*
X1144972D01*
X1144185Y837501D02*
Y839075D01*
X1143398Y860335D02*
X1144972D01*
X1144185Y859548D02*
Y861123D01*
X1146153Y846162D02*
X1147728D01*
X1146941Y845375D02*
Y846949D01*
X1146153Y852461D02*
X1147728D01*
X1146941Y851674D02*
Y853249D01*
X1146153Y843012D02*
X1147728D01*
X1146941Y842225D02*
Y843800D01*
X1146153Y855611D02*
X1147728D01*
X1146941Y854823D02*
Y856398D01*
X1146153Y839863D02*
X1147728D01*
X1146941Y839075D02*
Y840650D01*
X1146153Y858760D02*
X1147728D01*
X1146941Y857973D02*
Y859548D01*
X1147532Y866123D02*
X1149894D01*
X1148713Y864942D02*
Y867304D01*
X1147532Y832501D02*
X1149894D01*
X1148713Y831320D02*
Y833682D01*
X1166154Y866123D02*
X1168516D01*
X1167335Y864942D02*
Y867304D01*
X1166154Y832501D02*
X1168516D01*
X1167335Y831320D02*
Y833682D01*
X1084228Y405500D02*
X1087772D01*
X1086000Y403728D02*
Y407272D01*
X1074228Y405500D02*
X1077772D01*
X1076000Y403728D02*
Y407272D01*
X1064228Y405500D02*
X1067772D01*
X1066000Y403728D02*
Y407272D01*
X1054228Y405500D02*
X1057772D01*
X1056000Y403728D02*
Y407272D01*
X867728Y786000D02*
X871272D01*
X869500Y784228D02*
Y787772D01*
X867728Y776000D02*
X871272D01*
X869500Y774228D02*
Y777772D01*
X867728Y766000D02*
X871272D01*
X869500Y764228D02*
Y767772D01*
X867728Y756000D02*
X871272D01*
X869500Y754228D02*
Y757772D01*
X867728Y746000D02*
X871272D01*
X869500Y744228D02*
Y747772D01*
X867728Y736000D02*
X871272D01*
X869500Y734228D02*
Y737772D01*
X867728Y726000D02*
X871272D01*
X869500Y724228D02*
Y727772D01*
X867728Y716000D02*
X871272D01*
X869500Y714228D02*
Y717772D01*
X978728Y668000D02*
X982272D01*
X980500Y666228D02*
Y669772D01*
X968728Y668000D02*
X972272D01*
X970500Y666228D02*
Y669772D01*
X958728Y668000D02*
X962272D01*
X960500Y666228D02*
Y669772D01*
X948728Y668000D02*
X952272D01*
X950500Y666228D02*
Y669772D01*
X938728Y668000D02*
X942272D01*
X940500Y666228D02*
Y669772D01*
X928728Y668000D02*
X932272D01*
X930500Y666228D02*
Y669772D01*
X918728Y668000D02*
X922272D01*
X920500Y666228D02*
Y669772D01*
X908728Y668000D02*
X912272D01*
X910500Y666228D02*
Y669772D01*
X1096228Y405500D02*
X1099772D01*
X1098000Y403728D02*
Y407272D01*
X1106228Y405500D02*
X1109772D01*
X1108000Y403728D02*
Y407272D01*
X1116228Y405500D02*
X1119772D01*
X1118000Y403728D02*
Y407272D01*
X1126228Y405500D02*
X1129772D01*
X1128000Y403728D02*
Y407272D01*
X1136228Y405500D02*
X1139772D01*
X1138000Y403728D02*
Y407272D01*
X1146228Y405500D02*
X1149772D01*
X1148000Y403728D02*
Y407272D01*
X865728Y873000D02*
X869272D01*
X867500Y871228D02*
Y874772D01*
X865728Y883000D02*
X869272D01*
X867500Y881228D02*
Y884772D01*
X865728Y893000D02*
X869272D01*
X867500Y891228D02*
Y894772D01*
X865728Y903000D02*
X869272D01*
X867500Y901228D02*
Y904772D01*
X865728Y913000D02*
X869272D01*
X867500Y911228D02*
Y914772D01*
X865728Y923000D02*
X869272D01*
X867500Y921228D02*
Y924772D01*
X977728Y738000D02*
X981272D01*
X979500Y736228D02*
Y739772D01*
X967728Y738000D02*
X971272D01*
X969500Y736228D02*
Y739772D01*
X977728Y748000D02*
X981272D01*
X979500Y746228D02*
Y749772D01*
X967728Y748000D02*
X971272D01*
X969500Y746228D02*
Y749772D01*
X977728Y758000D02*
X981272D01*
X979500Y756228D02*
Y759772D01*
X967728Y758000D02*
X971272D01*
X969500Y756228D02*
Y759772D01*
X1143398Y918425D02*
X1144972D01*
X1144185Y917638D02*
Y919213D01*
X1143398Y921575D02*
X1144972D01*
X1144185Y920787D02*
Y922362D01*
X1143398Y915276D02*
X1144972D01*
X1144185Y914488D02*
Y916063D01*
X1143398Y924724D02*
X1144972D01*
X1144185Y923937D02*
Y925512D01*
X1143398Y912126D02*
X1144972D01*
X1144185Y911339D02*
Y912913D01*
X1143398Y927874D02*
X1144972D01*
X1144185Y927087D02*
Y928661D01*
X1143398Y908976D02*
X1144972D01*
X1144185Y908189D02*
Y909764D01*
X1143398Y931024D02*
X1144972D01*
X1144185Y930236D02*
Y931811D01*
X1146154Y916850D02*
X1147728D01*
X1146941Y916063D02*
Y917638D01*
X1146154Y923150D02*
X1147728D01*
X1146941Y922362D02*
Y923937D01*
X1146154Y913701D02*
X1147728D01*
X1146941Y912913D02*
Y914488D01*
X1146154Y926299D02*
X1147728D01*
X1146941Y925512D02*
Y927087D01*
X1146154Y910551D02*
X1147728D01*
X1146941Y909764D02*
Y911339D01*
X1146154Y929449D02*
X1147728D01*
X1146941Y928661D02*
Y930236D01*
X1147532Y936811D02*
X1149894D01*
X1148713Y935630D02*
Y937992D01*
X1147532Y903189D02*
X1149894D01*
X1148713Y902008D02*
Y904370D01*
X1166154Y936811D02*
X1168516D01*
X1167335Y935630D02*
Y937992D01*
X1166154Y903189D02*
X1168516D01*
X1167335Y902008D02*
Y904370D01*
X776228Y703000D02*
X779772D01*
X778000Y701228D02*
Y704772D01*
X766228Y703000D02*
X769772D01*
X768000Y701228D02*
Y704772D01*
X776228Y713000D02*
X779772D01*
X778000Y711228D02*
Y714772D01*
X766228Y713000D02*
X769772D01*
X768000Y711228D02*
Y714772D01*
X776228Y723000D02*
X779772D01*
X778000Y721228D02*
Y724772D01*
X766228Y723000D02*
X769772D01*
X768000Y721228D02*
Y724772D01*
X1041728Y546000D02*
X1045272D01*
X1043500Y544228D02*
Y547772D01*
X1051728Y546000D02*
X1055272D01*
X1053500Y544228D02*
Y547772D01*
X1041728Y536000D02*
X1045272D01*
X1043500Y534228D02*
Y537772D01*
X1051728Y536000D02*
X1055272D01*
X1053500Y534228D02*
Y537772D01*
X1041728Y526000D02*
X1045272D01*
X1043500Y524228D02*
Y527772D01*
X1051728Y526000D02*
X1055272D01*
X1053500Y524228D02*
Y527772D01*
X801213Y715000D02*
X802787D01*
X802000Y714213D02*
Y715787D01*
X1022986Y595232D02*
X1024561D01*
X1023773Y594444D02*
Y596019D01*
X1020052Y598166D02*
X1021626D01*
X1020839Y597379D02*
Y598953D01*
X953436Y779150D02*
X955011D01*
X954223Y778362D02*
Y779937D01*
X956556Y776075D02*
X958131D01*
X957343Y775287D02*
Y776862D01*
X962713Y774500D02*
X964287D01*
X963500Y773713D02*
Y775287D01*
X945713Y782000D02*
X947287D01*
X946500Y781213D02*
Y782787D01*
X966213Y784000D02*
X967787D01*
X967000Y783213D02*
Y784787D01*
X959713Y782500D02*
X961287D01*
X960500Y781713D02*
Y783287D01*
X933713Y771000D02*
X935287D01*
X934500Y770213D02*
Y771787D01*
X972524Y767888D02*
X974099D01*
X973312Y767101D02*
Y768676D01*
X1005713Y626500D02*
X1007287D01*
X1006500Y625713D02*
Y627287D01*
X1099713Y579500D02*
X1101287D01*
X1100500Y578713D02*
Y580287D01*
X1093113Y582000D02*
X1094687D01*
X1093900Y581213D02*
Y582787D01*
X768713Y1098000D02*
X770287D01*
X769500Y1097213D02*
Y1098787D01*
X782213Y1097000D02*
X783787D01*
X783000Y1096213D02*
Y1097787D01*
X901713Y1014000D02*
X903287D01*
X902500Y1013213D02*
Y1014787D01*
X910713Y1013500D02*
X912287D01*
X911500Y1012713D02*
Y1014287D01*
X934213Y747000D02*
X935787D01*
X935000Y746213D02*
Y747787D01*
X944138Y713070D02*
X945713D01*
X944925Y712282D02*
Y713857D01*
X940213Y721500D02*
X941787D01*
X941000Y720713D02*
Y722287D01*
X936913Y729500D02*
X938487D01*
X937700Y728713D02*
Y730287D01*
X931213Y698000D02*
X932787D01*
X932000Y697213D02*
Y698787D01*
X924213Y711600D02*
X925787D01*
X925000Y710813D02*
Y712387D01*
X916018Y697806D02*
X917593D01*
X916806Y697018D02*
Y698593D01*
X974173Y631000D02*
X975748D01*
X974961Y630213D02*
Y631787D01*
X937713Y634500D02*
X939287D01*
X938500Y633713D02*
Y635287D01*
X996213Y605000D02*
X997787D01*
X997000Y604213D02*
Y605787D01*
X981213Y608925D02*
X982787D01*
X982000Y608138D02*
Y609713D01*
X1018713Y590500D02*
X1020287D01*
X1019500Y589713D02*
Y591287D01*
X1044268Y592200D02*
X1045843D01*
X1045055Y591413D02*
Y592987D01*
X1010913Y603500D02*
X1012487D01*
X1011700Y602713D02*
Y604287D01*
X776238Y921688D02*
X777813D01*
X777025Y920900D02*
Y922475D01*
X771713Y966000D02*
X773287D01*
X772500Y965213D02*
Y966787D01*
X765913Y1047500D02*
X767487D01*
X766700Y1046713D02*
Y1048287D01*
X765913Y1053700D02*
X767487D01*
X766700Y1052913D02*
Y1054487D01*
X767142Y753500D02*
X768716D01*
X767929Y752713D02*
Y754287D01*
X802613Y480000D02*
X804187D01*
X803400Y479213D02*
Y480787D01*
X815313Y480000D02*
X816887D01*
X816100Y479213D02*
Y480787D01*
X787313Y779700D02*
X788887D01*
X788100Y778913D02*
Y780487D01*
X780113Y781225D02*
X781687D01*
X780900Y780438D02*
Y782013D01*
X929713Y725900D02*
X931287D01*
X930500Y725113D02*
Y726687D01*
X981913Y1020300D02*
X983487D01*
X982700Y1019513D02*
Y1021087D01*
X993713Y1016000D02*
X995287D01*
X994500Y1015213D02*
Y1016787D01*
X981913Y1016000D02*
X983487D01*
X982700Y1015213D02*
Y1016787D01*
X946013Y794100D02*
X947587D01*
X946800Y793313D02*
Y794887D01*
X831813Y711063D02*
X833387D01*
X832600Y710275D02*
Y711850D01*
X1016103Y747909D02*
X1017678D01*
X1016891Y747122D02*
Y748697D01*
X1025413Y546000D02*
X1026987D01*
X1026200Y545213D02*
Y546787D01*
X1142780Y517400D02*
X1144354D01*
X1143567Y516613D02*
Y518187D01*
X769913Y1070400D02*
X771487D01*
X770700Y1069613D02*
Y1071187D01*
X1122113Y832900D02*
X1123687D01*
X1122900Y832113D02*
Y833687D01*
X1131913Y771700D02*
X1133487D01*
X1132700Y770913D02*
Y772487D01*
X1150813Y777700D02*
X1152387D01*
X1151600Y776913D02*
Y778487D01*
X981313Y840800D02*
X982887D01*
X982100Y840013D02*
Y841587D01*
X982913Y836300D02*
X984487D01*
X983700Y835513D02*
Y837087D01*
X930713Y807500D02*
X932287D01*
X931500Y806713D02*
Y808287D01*
X956613Y818700D02*
X958187D01*
X957400Y817913D02*
Y819487D01*
X949113Y745400D02*
X950687D01*
X949900Y744613D02*
Y746187D01*
X924191Y767100D02*
X925766D01*
X924979Y766313D02*
Y767887D01*
X910713Y749100D02*
X912287D01*
X911500Y748313D02*
Y749887D01*
X930591Y773775D02*
X932166D01*
X931379Y772987D02*
Y774562D01*
X936181Y782268D02*
X937756D01*
X936968Y781481D02*
Y783056D01*
X1066213Y914600D02*
X1067787D01*
X1067000Y913813D02*
Y915387D01*
X805613Y459700D02*
X807187D01*
X806400Y458913D02*
Y460487D01*
X785413Y459700D02*
X786987D01*
X786200Y458913D02*
Y460487D01*
X921813Y459700D02*
X923387D01*
X922600Y458913D02*
Y460487D01*
X829224Y459700D02*
X830799D01*
X830011Y458913D02*
Y460487D01*
X932847Y794000D02*
X934422D01*
X933635Y793213D02*
Y794787D01*
X1038213Y827000D02*
X1039787D01*
X1039000Y826213D02*
Y827787D01*
X1154413Y770300D02*
X1155987D01*
X1155200Y769513D02*
Y771087D01*
X928913Y759800D02*
X930487D01*
X929700Y759013D02*
Y760587D01*
X924213Y773700D02*
X925787D01*
X925000Y772913D02*
Y774487D01*
X1072268Y607500D02*
X1073842D01*
X1073055Y606713D02*
Y608287D01*
X976013Y706900D02*
X977587D01*
X976800Y706113D02*
Y707687D01*
X925331Y795282D02*
X926905D01*
X926118Y794495D02*
Y796069D01*
X927517Y781200D02*
X929091D01*
X928304Y780413D02*
Y781987D01*
X927213Y754610D02*
X928787D01*
X928000Y753823D02*
Y755398D01*
X1169513Y750000D02*
X1171087D01*
X1170300Y749213D02*
Y750787D01*
X1133113Y922700D02*
X1134687D01*
X1133900Y921913D02*
Y923487D01*
X1164013Y738500D02*
X1165587D01*
X1164800Y737713D02*
Y739287D01*
X987813Y624647D02*
X989387D01*
X988600Y623860D02*
Y625434D01*
X1082813Y439400D02*
X1084387D01*
X1083600Y438613D02*
Y440187D01*
X1101313Y416100D02*
X1102887D01*
X1102100Y415313D02*
Y416887D01*
X1122913Y608540D02*
X1124487D01*
X1123700Y607753D02*
Y609328D01*
X1095673Y599139D02*
X1097248D01*
X1096461Y598352D02*
Y599927D01*
X1074013Y491700D02*
X1075587D01*
X1074800Y490913D02*
Y492487D01*
X1085913Y459700D02*
X1087487D01*
X1086700Y458913D02*
Y460487D01*
X1120613Y592000D02*
X1122187D01*
X1121400Y591213D02*
Y592787D01*
X1129449Y615240D02*
X1131024D01*
X1130236Y614453D02*
Y616028D01*
X1037213Y537100D02*
X1038787D01*
X1038000Y536313D02*
Y537887D01*
X1072813Y615200D02*
X1074387D01*
X1073600Y614413D02*
Y615987D01*
X820398Y819500D02*
X821972D01*
X821185Y818713D02*
Y820287D01*
X828313Y826100D02*
X829887D01*
X829100Y825313D02*
Y826887D01*
X876713Y913400D02*
X878287D01*
X877500Y912613D02*
Y914187D01*
X936413Y936100D02*
X937987D01*
X937200Y935313D02*
Y936887D01*
X1172413Y963300D02*
X1173987D01*
X1173200Y962513D02*
Y964087D01*
X834887Y700170D02*
X836462D01*
X835675Y699383D02*
Y700957D01*
X808913Y798775D02*
X810487D01*
X809700Y797987D02*
Y799562D01*
X778302Y797300D02*
X779876D01*
X779089Y796513D02*
Y798087D01*
X724913Y894900D02*
X726487D01*
X725700Y894113D02*
Y895687D01*
X1032828Y1018700D02*
X1034403D01*
X1033616Y1017913D02*
Y1019487D01*
X1118813Y933700D02*
X1120387D01*
X1119600Y932913D02*
Y934487D01*
X766238Y532000D02*
X767813D01*
X767025Y531213D02*
Y532787D01*
X897713Y865700D02*
X899287D01*
X898500Y864913D02*
Y866487D01*
X856013Y801300D02*
X857587D01*
X856800Y800513D02*
Y802087D01*
X844113Y681100D02*
X845687D01*
X844900Y680313D02*
Y681887D01*
X844815Y502500D02*
X846390D01*
X845602Y501713D02*
Y503287D01*
X882613Y520100D02*
X884187D01*
X883400Y519313D02*
Y520887D01*
X835589Y452500D02*
X837164D01*
X836376Y451713D02*
Y453287D01*
X868713Y535500D02*
X870287D01*
X869500Y534713D02*
Y536287D01*
X838713Y527200D02*
X840287D01*
X839500Y526413D02*
Y527987D01*
X877313Y523700D02*
X878887D01*
X878100Y522913D02*
Y524487D01*
X813413Y504400D02*
X814987D01*
X814200Y503613D02*
Y505187D01*
X910813Y859253D02*
X912387D01*
X911600Y858466D02*
Y860041D01*
X1085813Y518400D02*
X1087387D01*
X1086600Y517613D02*
Y519187D01*
X785313Y790900D02*
X786887D01*
X786100Y790113D02*
Y791687D01*
X910813Y827400D02*
X912387D01*
X911600Y826613D02*
Y828187D01*
X727313Y456800D02*
X728887D01*
X728100Y456013D02*
Y457587D01*
X745313Y747100D02*
X746887D01*
X746100Y746313D02*
Y747887D01*
X875213Y486822D02*
X876787D01*
X876000Y486035D02*
Y487609D01*
X906213Y482100D02*
X907787D01*
X907000Y481313D02*
Y482887D01*
X770913Y512000D02*
X772487D01*
X771700Y511213D02*
Y512787D01*
X785113Y496400D02*
X786687D01*
X785900Y495613D02*
Y497187D01*
X841313Y510000D02*
X842887D01*
X842100Y509213D02*
Y510787D01*
X769613Y525200D02*
X771187D01*
X770400Y524413D02*
Y525987D01*
X832113Y682700D02*
X833687D01*
X832900Y681913D02*
Y683487D01*
X813513Y759700D02*
X815087D01*
X814300Y758913D02*
Y760487D01*
X973013Y780600D02*
X974587D01*
X973800Y779813D02*
Y781387D01*
X997013Y986900D02*
X998587D01*
X997800Y986113D02*
Y987687D01*
X821513Y707700D02*
X823087D01*
X822300Y706913D02*
Y708487D01*
X770713Y824000D02*
X772287D01*
X771500Y823213D02*
Y824787D01*
X759513Y841300D02*
X761087D01*
X760300Y840513D02*
Y842087D01*
X755213Y806400D02*
X756787D01*
X756000Y805613D02*
Y807187D01*
X872413Y882900D02*
X873987D01*
X873200Y882113D02*
Y883687D01*
X776713Y741800D02*
X778287D01*
X777500Y741013D02*
Y742587D01*
X801081Y761573D02*
X802656D01*
X801869Y760785D02*
Y762360D01*
X831840Y735000D02*
X833415D01*
X832627Y734213D02*
Y735787D01*
X816213Y709200D02*
X817787D01*
X817000Y708413D02*
Y709987D01*
X807013Y759800D02*
X808587D01*
X807800Y759013D02*
Y760587D01*
X895313Y725500D02*
X896887D01*
X896100Y724713D02*
Y726287D01*
X848813Y688100D02*
X850387D01*
X849600Y687313D02*
Y688887D01*
X908613Y717700D02*
X910187D01*
X909400Y716913D02*
Y718487D01*
X820398Y759800D02*
X821972D01*
X821185Y759013D02*
Y760587D01*
X851513Y703900D02*
X853087D01*
X852300Y703113D02*
Y704687D01*
X856013Y701800D02*
X857587D01*
X856800Y701013D02*
Y702587D01*
X826518Y909905D02*
X828093D01*
X827305Y909118D02*
Y910693D01*
X811487Y900725D02*
X813062D01*
X812275Y899938D02*
Y901513D01*
X805313Y898700D02*
X806887D01*
X806100Y897913D02*
Y899487D01*
X802187Y909200D02*
X803762D01*
X802975Y908413D02*
Y909987D01*
X808013Y912925D02*
X809587D01*
X808800Y912138D02*
Y913713D01*
X796913Y903500D02*
X798487D01*
X797700Y902713D02*
Y904287D01*
X859413Y901200D02*
X860987D01*
X860200Y900413D02*
Y901987D01*
X795913Y891875D02*
X797487D01*
X796700Y891088D02*
Y892663D01*
X821213Y921500D02*
X822787D01*
X822000Y920713D02*
Y922287D01*
X801013Y919100D02*
X802587D01*
X801800Y918313D02*
Y919887D01*
X795113Y933700D02*
X796687D01*
X795900Y932913D02*
Y934487D01*
X790113Y806200D02*
X791687D01*
X790900Y805413D02*
Y806987D01*
X1130863Y529650D02*
X1132437D01*
X1131650Y528863D02*
Y530437D01*
X1122780Y516500D02*
X1124354D01*
X1123567Y515713D02*
Y517287D01*
X1091180Y493900D02*
X1092754D01*
X1091967Y493113D02*
Y494687D01*
X1089713Y447600D02*
X1091287D01*
X1090500Y446813D02*
Y448387D01*
X803213Y544500D02*
X804787D01*
X804000Y543713D02*
Y545287D01*
X810813Y514400D02*
X812387D01*
X811600Y513613D02*
Y515187D01*
X792213Y510600D02*
X793787D01*
X793000Y509813D02*
Y511387D01*
X838713Y778900D02*
X840287D01*
X839500Y778113D02*
Y779687D01*
X876813Y874800D02*
X878387D01*
X877600Y874013D02*
Y875587D01*
X773713Y819900D02*
X775287D01*
X774500Y819113D02*
Y820687D01*
X1154013Y1002400D02*
X1155587D01*
X1154800Y1001613D02*
Y1003187D01*
X1020992Y1022500D02*
X1022567D01*
X1021780Y1021713D02*
Y1023287D01*
X903613Y725500D02*
X905187D01*
X904400Y724713D02*
Y726287D01*
X1058113Y431500D02*
X1059687D01*
X1058900Y430713D02*
Y432287D01*
X977513Y403800D02*
X979087D01*
X978300Y403013D02*
Y404587D01*
X1120713Y767700D02*
X1122287D01*
X1121500Y766913D02*
Y768487D01*
X1157513Y781104D02*
X1159087D01*
X1158300Y780316D02*
Y781891D01*
X790513Y789100D02*
X792087D01*
X791300Y788313D02*
Y789887D01*
X819013Y787500D02*
X820587D01*
X819800Y786713D02*
Y788287D01*
X897413Y717800D02*
X898987D01*
X898200Y717013D02*
Y718587D01*
X807413Y766800D02*
X808987D01*
X808200Y766013D02*
Y767587D01*
X1121113Y898000D02*
X1122687D01*
X1121900Y897213D02*
Y898787D01*
X1112813Y517200D02*
X1114387D01*
X1113600Y516413D02*
Y517987D01*
X1150980Y699400D02*
X1152555D01*
X1151768Y698613D02*
Y700187D01*
X1169513Y729300D02*
X1171087D01*
X1170300Y728513D02*
Y730087D01*
X1110313Y504500D02*
X1111887D01*
X1111100Y503713D02*
Y505287D01*
X785713Y1137000D02*
X787287D01*
X786500Y1136213D02*
Y1137787D01*
X793613Y1148100D02*
X795187D01*
X794400Y1147313D02*
Y1148887D01*
X841013Y1146200D02*
X842587D01*
X841800Y1145413D02*
Y1146987D01*
X737313Y888300D02*
X738887D01*
X738100Y887513D02*
Y889087D01*
X736913Y791500D02*
X738487D01*
X737700Y790713D02*
Y792287D01*
X782013Y759800D02*
X783587D01*
X782800Y759013D02*
Y760587D01*
X911513Y1152400D02*
X913087D01*
X912300Y1151613D02*
Y1153187D01*
X1031713Y611600D02*
X1033287D01*
X1032500Y610813D02*
Y612387D01*
X1041013Y611600D02*
X1042587D01*
X1041800Y610813D02*
Y612387D01*
X1124513Y638000D02*
X1126087D01*
X1125300Y637213D02*
Y638787D01*
X1132913Y608400D02*
X1134487D01*
X1133700Y607613D02*
Y609187D01*
X1053813Y732900D02*
X1055387D01*
X1054600Y732113D02*
Y733687D01*
X991613Y635400D02*
X993187D01*
X992400Y634613D02*
Y636187D01*
X1052813Y739800D02*
X1054387D01*
X1053600Y739013D02*
Y740587D01*
X1018613Y739800D02*
X1020187D01*
X1019400Y739013D02*
Y740587D01*
X1034813Y722900D02*
X1036387D01*
X1035600Y722113D02*
Y723687D01*
X1077413Y419800D02*
X1078987D01*
X1078200Y419013D02*
Y420587D01*
X1068813Y437100D02*
X1070387D01*
X1069600Y436313D02*
Y437887D01*
X1005613Y403700D02*
X1007187D01*
X1006400Y402913D02*
Y404487D01*
X748413Y754100D02*
X749987D01*
X749200Y753313D02*
Y754887D01*
X776413Y747100D02*
X777987D01*
X777200Y746313D02*
Y747887D01*
X1092913Y461900D02*
X1094487D01*
X1093700Y461113D02*
Y462687D01*
X1072613Y482300D02*
X1074187D01*
X1073400Y481513D02*
Y483087D01*
X1082513Y489400D02*
X1084087D01*
X1083300Y488613D02*
Y490187D01*
X1100463Y457083D02*
X1102037D01*
X1101250Y456296D02*
Y457870D01*
X1102613Y452300D02*
X1104187D01*
X1103400Y451513D02*
Y453087D01*
X1126113Y505400D02*
X1127687D01*
X1126900Y504613D02*
Y506187D01*
X1127413Y417700D02*
X1128987D01*
X1128200Y416913D02*
Y418487D01*
X963213Y1030800D02*
X964787D01*
X964000Y1030013D02*
Y1031587D01*
X779913Y497800D02*
X781487D01*
X780700Y497013D02*
Y498587D01*
X796313Y496372D02*
X797887D01*
X797100Y495585D02*
Y497159D01*
X786913Y504700D02*
X788487D01*
X787700Y503913D02*
Y505487D01*
X1026413Y414000D02*
X1027987D01*
X1027200Y413213D02*
Y414787D01*
X952313Y995600D02*
X953887D01*
X953100Y994813D02*
Y996387D01*
X992613Y977300D02*
X994187D01*
X993400Y976513D02*
Y978087D01*
X1002013Y746500D02*
X1003587D01*
X1002800Y745713D02*
Y747287D01*
X1096613Y468300D02*
X1098187D01*
X1097400Y467513D02*
Y469087D01*
X780113Y763600D02*
X781687D01*
X780900Y762813D02*
Y764387D01*
X779013Y790800D02*
X780587D01*
X779800Y790013D02*
Y791587D01*
X825113Y715900D02*
X826687D01*
X825900Y715113D02*
Y716687D01*
X1100513Y490100D02*
X1102087D01*
X1101300Y489313D02*
Y490887D01*
X1091513Y489500D02*
X1093087D01*
X1092300Y488713D02*
Y490287D01*
X1117213Y460500D02*
X1118787D01*
X1118000Y459713D02*
Y461287D01*
X1107913Y528300D02*
X1109487D01*
X1108700Y527513D02*
Y529087D01*
X1135013Y517400D02*
X1136587D01*
X1135800Y516613D02*
Y518187D01*
X982513Y444500D02*
X984087D01*
X983300Y443713D02*
Y445287D01*
X1133613Y918300D02*
X1135187D01*
X1134400Y917513D02*
Y919087D01*
X786013Y746400D02*
X787587D01*
X786800Y745613D02*
Y747187D01*
X961713Y822500D02*
X963287D01*
X962500Y821713D02*
Y823287D01*
X1103813Y836100D02*
X1105387D01*
X1104600Y835313D02*
Y836887D01*
X1100513Y463300D02*
X1102087D01*
X1101300Y462513D02*
Y464087D01*
X821375Y780337D02*
X822950D01*
X822163Y779550D02*
Y781125D01*
X767613Y837200D02*
X769187D01*
X768400Y836413D02*
Y837987D01*
X1174713Y976000D02*
X1176287D01*
X1175500Y975213D02*
Y976787D01*
X1105413Y991500D02*
X1106987D01*
X1106200Y990713D02*
Y992287D01*
X1125513Y991500D02*
X1127087D01*
X1126300Y990713D02*
Y992287D01*
X1093013Y480663D02*
X1094587D01*
X1093800Y479875D02*
Y481450D01*
X810771Y521858D02*
X812346D01*
X811558Y521071D02*
Y522646D01*
X779013Y562600D02*
X780587D01*
X779800Y561813D02*
Y563387D01*
X832213Y562600D02*
X833787D01*
X833000Y561813D02*
Y563387D01*
X851113Y462800D02*
X852687D01*
X851900Y462013D02*
Y463587D01*
X763813Y462800D02*
X765387D01*
X764600Y462013D02*
Y463587D01*
X1171838Y823625D02*
X1173413D01*
X1172625Y822838D02*
Y824413D01*
X960113Y746600D02*
X961687D01*
X960900Y745813D02*
Y747387D01*
X1125513Y1011400D02*
X1127087D01*
X1126300Y1010613D02*
Y1012187D01*
X915969Y720775D02*
X917544D01*
X916757Y719987D02*
Y721562D01*
X1146874Y1005100D02*
X1148449D01*
X1147661Y1004313D02*
Y1005887D01*
X761313Y833300D02*
X762887D01*
X762100Y832513D02*
Y834087D01*
X883913Y848700D02*
X885487D01*
X884700Y847913D02*
Y849487D01*
X835937Y812699D02*
X837512D01*
X836724Y811912D02*
Y813487D01*
X807037Y903125D02*
X808612D01*
X807825Y902337D02*
Y903912D01*
X795113Y938500D02*
X796687D01*
X795900Y937713D02*
Y939287D01*
X822366Y806100D02*
X823941D01*
X823154Y805313D02*
Y806887D01*
X758213Y818400D02*
X759787D01*
X759000Y817613D02*
Y819187D01*
X948437Y757169D02*
X949224D01*
X948831Y756776D02*
Y757563D01*
X944106Y757169D02*
X944894D01*
X944500Y756776D02*
Y757563D01*
X939776Y757169D02*
X940563D01*
X940169Y756776D02*
Y757563D01*
X948437Y761500D02*
X949224D01*
X948831Y761106D02*
Y761894D01*
X944106Y761500D02*
X944894D01*
X944500Y761106D02*
Y761894D01*
X939776Y761500D02*
X940563D01*
X940169Y761106D02*
Y761894D01*
X948437Y765831D02*
X949224D01*
X948831Y765437D02*
Y766224D01*
X944106Y765831D02*
X944894D01*
X944500Y765437D02*
Y766224D01*
X939776Y765831D02*
X940563D01*
X940169Y765437D02*
Y766224D01*
X1021366Y613650D02*
X1022153D01*
X1021760Y613256D02*
Y614044D01*
X1021366Y609319D02*
X1022153D01*
X1021760Y608925D02*
Y609713D01*
X1017035Y613650D02*
X1017823D01*
X1017429Y613256D02*
Y614044D01*
X1017035Y609319D02*
X1017823D01*
X1017429Y608925D02*
Y609713D01*
M02*
