M48
;Layer_Color=9474304
;FILE_FORMAT=2:5
INCH,LZ
;TYPE=PLATED
T1F00S00C0.00787
T2F00S00C0.01575
T3F00S00C0.02362
T5F00S00C0.03543
%
T01
X1017429Y0609319
X102176
Y061365
X1017429
X0948831Y0757169
X09445
X0940169
Y07615
X09445
X0948831
Y0765831
X09445
X0940169
T02
X07281Y04568
X07646Y04628
X07862Y04597
X08064
X0830011
X0836376Y04525
X08519Y04628
X09226Y04597
X09833Y04445
X09783Y04038
X10064Y04037
X10272Y0414
X10589Y04315
X10696Y04371
X10836Y04394
X10905Y04476
X10867Y04597
X10937Y04619
X10782Y04198
X11021Y04161
X11282Y04177
X1118Y04605
X11013Y04633
X110125Y0457083
X11034Y04523
X10974Y04683
X10938Y0480663
X11013Y04901
X11111Y05045
X11136Y05172
X1123567Y05165
X11358Y05174
X1143567
X113165Y052965
X11087Y05283
X11269Y05054
X11214Y0592
X11237Y060854
X11337Y06084
X1130236Y061524
X1096461Y0599139
X10939Y0582
X11005Y05795
X1073055Y06075
X10736Y06152
X10418Y06116
X10325
X1023773Y0595232
X1020839Y0598166
X10195Y05905
X10117Y06035
X0997Y0605
X0982Y0608925
X09886Y0624647
X1045055Y05922
X1038Y05371
X10262Y0546
X10866Y05184
X1091967Y04939
X10923Y04895
X10833Y04894
X10748Y04917
X10734Y04823
X0907Y04821
X0876Y0486822
X08781Y05237
X08834Y05201
X08695Y05355
X08395Y05272
X08421Y051
X0845602Y05025
X08142Y05044
X08116Y05144
X0811558Y0521858
X0793Y05106
X07877Y05047
X07859Y04964
X07971Y0496372
X08034Y048
X08161
X0804Y05445
X0833Y05626
X07798
X0767025Y0532
X07704Y05252
X07717Y0512
X07807Y04978
X07775Y07418
X07772Y07471
X0767929Y07535
X07492Y07541
X07461Y07471
X07809Y07636
Y0781225
X07881Y07797
X07828Y07598
X07868Y07464
X0801869Y0761573
X08078Y07598
X08143Y07597
X0821185Y07598
X08082Y07668
X0822163Y0780337
X08395Y07789
X0832627Y0735
X08326Y0711063
X08259Y07159
X08223Y07077
X0817Y07092
X0802Y0715
X0835675Y070017
X08329Y06827
X08449Y06811
X08496Y06881
X08523Y07039
X08568Y07018
X08982Y07178
X08961Y07255
X09044
X09094Y07177
X0916757Y0720775
X0925Y07116
X09305Y07259
X0935Y0747
X0928Y075461
X09297Y07598
X0924979Y07671
X0925Y07737
X0931379Y0773775
X09345Y0771
X0928304Y07812
X09115Y07491
X0916806Y0697806
X0932Y0698
X0944925Y071307
X0941Y07215
X09377Y07295
X09499Y07454
X09609Y07466
X09635Y07745
X0957343Y0776075
X0954223Y077915
X09738Y07806
X0973312Y0767888
X10028Y07465
X1016891Y0747909
X10194Y07398
X10356Y07229
X10546Y07329
X10536Y07398
X09768Y07069
X0974961Y0631
X09924Y06354
X10065Y06265
X09385Y06345
X11253Y0638
X1151768Y06994
X11703Y07293
X11648Y07385
X11703Y075
X11552Y07703
X11516Y07777
X11583Y0781104
X11327Y07717
X11215Y07677
X11229Y08329
X11046Y08361
X1144185Y0838288
Y0841438
Y0844587
Y0847737
Y0850886
Y0854036
Y0857186
Y0860335
X1146941Y085876
Y0855611
Y0852461
Y0846162
Y0843012
Y0839863
X1172625Y0823625
X1146941Y0910551
Y0913701
Y091685
X1144185Y0918425
Y0921575
Y0924724
Y0927874
Y0931024
X1146941Y0929449
Y0926299
Y092315
X1144185Y0915276
Y0912126
Y0908976
X11344Y09183
X11339Y09227
X11196Y09337
X11219Y0898
X1067Y09146
X1039Y0827
X09837Y08363
X09821Y08408
X09625Y08225
X09574Y08187
X09468Y07941
X09465Y0782
X09605Y07825
X0967Y0784
X0936968Y0782268
X0933635Y0794
X0926118Y0795282
X09315Y08075
X09116Y08274
Y0859253
X08985Y08657
X08776Y08748
X08732Y08829
X08602Y09012
X08775Y09134
X0827305Y0909905
X0822Y09215
X08088Y0912925
X0802975Y09092
X0807825Y0903125
X08061Y08987
X0812275Y0900725
X07977Y09035
X07967Y0891875
X08018Y09191
X07959Y09337
X07909Y08062
X07913Y07891
X07861Y07909
X08097Y0798775
X0823154Y08061
X0821185Y08195
X08291Y08261
X0836724Y0812699
X08568Y08013
X08198Y07875
X08847Y08487
X09372Y09361
X0777025Y0921688
X07381Y08883
X07257Y08949
X07603Y08413
X07621Y08333
X07684Y08372
X07715Y0824
X07745Y08199
X0759Y08184
X0756Y08064
X0779089Y07973
X07798Y07908
X07377Y07915
X07725Y0966
X07667Y10475
Y10537
X07707Y10704
X07959Y09385
X09025Y1014
X09115Y10135
X09531Y09956
X0964Y10308
X09827Y10203
Y1016
X09945
X09978Y09869
X09934Y09773
X102178Y10225
X1033616Y10187
X11062Y09915
X11263
Y10114
X1147661Y10051
X11548Y10024
X11755Y0976
X11732Y09633
X09123Y11524
X08418Y11462
X07944Y11481
X07865Y1137
X0783Y1097
X07695Y1098
T03
X0952Y1023
Y1028
Y1033
Y1038
X0957
Y1033
Y1028
Y1023
T05
X07455Y0431
X07555
X07655
X07755
X09595Y04345
Y04445
Y04545
Y04645
Y04245
Y04145
Y04045
X10435Y04055
Y04155
Y04255
Y04355
Y04455
Y04555
X1056Y04055
X1066
X1076
X1086
X1098
X1108
X1118
X1128
X1138
X1148
X10435Y04735
Y04835
Y04935
Y05035
Y0526
Y0536
Y0546
X10535
Y0536
Y0526
X09595Y05245
Y05345
Y05445
Y05545
Y05645
Y05745
Y05845
Y05945
Y06045
Y06145
Y05145
Y05045
Y04945
Y04845
Y04745
X07375Y0512
Y0522
Y0532
Y0542
X07335Y0668
X07435
X07535
X07635
X07735
X0778Y0703
X0768
Y0713
X0778
Y0723
X0768
X07315
Y0713
Y0703
Y0733
Y0743
Y0753
Y0763
Y0773
X08695Y0776
Y0766
Y0756
Y0746
Y0736
Y0726
Y0716
X08925Y07365
Y07465
Y07565
Y07665
Y07765
X0892Y0668
X0882
X0872
X0862
X0852
X0842
X0832
X0822
X08035
X07935
X07835
X09105
X09205
X09305
X09405
X09505
X09605
X09705
X09805
X09795Y0738
X09695
Y0748
X09795
Y0758
X09695
X10135Y0822
Y0832
X10235
Y0822
X10335
Y0832
X10115Y08815
Y08915
X08925Y08965
Y08865
Y08765
Y08665
Y08565
Y08465
Y08365
Y08265
Y08165
Y08065
Y07965
Y07865
X08695Y0786
X08675Y0873
Y0883
Y0893
Y0903
Y0913
Y0923
X07315Y08815
Y08715
Y08615
Y08515
Y08415
Y08315
Y08215
Y08115
X0776Y09455
X0778Y1052
X0788
X0798
X0808
X0818
X0828
X0838
X0839Y1012
X0829
Y1002
X0839
Y0992
X0829
X07985Y09905
Y10005
Y10105
X07885
Y10005
Y09905
X0786Y09455
X0796
X0806
X0816
X0826
X0836
X0846
X0856
X0866
X0876
X0886
X0896
X0906
X0916
X0926
X0936
X089Y1001
Y1011
Y1021
Y1031
Y1041
Y1051
Y1061
X08865Y1095
X08965
X09065
M30
