G04*
G04 #@! TF.GenerationSoftware,Altium Limited,Altium Designer,20.0.9 (164)*
G04*
G04 Layer_Color=16711935*
%FSLAX25Y25*%
%MOIN*%
G70*
G01*
G75*
%ADD147C,0.06706*%
%ADD148R,0.06706X0.06706*%
%ADD149R,0.06706X0.06706*%
%ADD150C,0.04737*%
%ADD151R,0.04737X0.04737*%
%ADD152C,0.03359*%
%ADD153O,0.07099X0.04737*%
%ADD154C,0.03950*%
%ADD155C,0.02769*%
D147*
X829000Y1012000D02*
D03*
X839000D02*
D03*
X829000Y1002000D02*
D03*
X839000D02*
D03*
X829000Y992000D02*
D03*
X788500Y1010500D02*
D03*
X798500D02*
D03*
X788500Y1000500D02*
D03*
X798500D02*
D03*
X788500Y990500D02*
D03*
X959500Y604500D02*
D03*
Y594500D02*
D03*
Y584500D02*
D03*
Y574500D02*
D03*
Y564500D02*
D03*
Y554500D02*
D03*
Y544500D02*
D03*
Y534500D02*
D03*
Y524500D02*
D03*
Y514500D02*
D03*
Y504500D02*
D03*
Y494500D02*
D03*
Y484500D02*
D03*
Y474500D02*
D03*
Y464500D02*
D03*
Y454500D02*
D03*
Y444500D02*
D03*
Y434500D02*
D03*
Y424500D02*
D03*
Y414500D02*
D03*
Y404500D02*
D03*
X890000Y1021000D02*
D03*
Y1011000D02*
D03*
Y1031000D02*
D03*
Y1041000D02*
D03*
Y1051000D02*
D03*
Y1061000D02*
D03*
X1013500Y832000D02*
D03*
X1023500Y822000D02*
D03*
Y832000D02*
D03*
X1033500Y822000D02*
D03*
Y832000D02*
D03*
X896500Y1095000D02*
D03*
X886500D02*
D03*
X778000Y1052000D02*
D03*
X788000D02*
D03*
X798000D02*
D03*
X808000D02*
D03*
X828000D02*
D03*
X818000D02*
D03*
X1043500Y473500D02*
D03*
Y483500D02*
D03*
Y493500D02*
D03*
X745500Y431000D02*
D03*
X755500D02*
D03*
X765500D02*
D03*
X737500Y512000D02*
D03*
Y522000D02*
D03*
Y532000D02*
D03*
X936000Y945500D02*
D03*
X926000D02*
D03*
X916000D02*
D03*
X906000D02*
D03*
X896000D02*
D03*
X886000D02*
D03*
X876000D02*
D03*
X866000D02*
D03*
X856000D02*
D03*
X846000D02*
D03*
X836000D02*
D03*
X826000D02*
D03*
X816000D02*
D03*
X806000D02*
D03*
X796000D02*
D03*
X786000D02*
D03*
X731500Y821500D02*
D03*
Y831500D02*
D03*
Y841500D02*
D03*
Y851500D02*
D03*
Y861500D02*
D03*
Y871500D02*
D03*
Y881500D02*
D03*
X1011500D02*
D03*
X731500Y713000D02*
D03*
Y723000D02*
D03*
Y733000D02*
D03*
Y743000D02*
D03*
Y753000D02*
D03*
Y763000D02*
D03*
Y773000D02*
D03*
X892500Y736500D02*
D03*
Y746500D02*
D03*
Y756500D02*
D03*
Y766500D02*
D03*
Y776500D02*
D03*
Y786500D02*
D03*
Y796500D02*
D03*
Y806500D02*
D03*
Y816500D02*
D03*
Y826500D02*
D03*
Y836500D02*
D03*
Y846500D02*
D03*
Y856500D02*
D03*
Y866500D02*
D03*
Y876500D02*
D03*
Y886500D02*
D03*
X793500Y668000D02*
D03*
X783500D02*
D03*
X773500D02*
D03*
X763500D02*
D03*
X753500D02*
D03*
X743500D02*
D03*
X733500D02*
D03*
X882000D02*
D03*
X872000D02*
D03*
X862000D02*
D03*
X852000D02*
D03*
X842000D02*
D03*
X832000D02*
D03*
X822000D02*
D03*
X1043500Y415500D02*
D03*
Y425500D02*
D03*
Y435500D02*
D03*
Y445500D02*
D03*
Y455500D02*
D03*
X1086000Y405500D02*
D03*
X1076000D02*
D03*
X1066000D02*
D03*
X869500Y776000D02*
D03*
Y766000D02*
D03*
Y756000D02*
D03*
Y746000D02*
D03*
Y736000D02*
D03*
Y726000D02*
D03*
Y716000D02*
D03*
X970500Y668000D02*
D03*
X960500D02*
D03*
X950500D02*
D03*
X940500D02*
D03*
X930500D02*
D03*
X920500D02*
D03*
X910500D02*
D03*
X1108000Y405500D02*
D03*
X1118000D02*
D03*
X1128000D02*
D03*
X1138000D02*
D03*
X1148000D02*
D03*
X867500Y883000D02*
D03*
Y893000D02*
D03*
Y903000D02*
D03*
Y913000D02*
D03*
Y923000D02*
D03*
X969500Y738000D02*
D03*
X979500Y748000D02*
D03*
X969500D02*
D03*
X979500Y758000D02*
D03*
X969500D02*
D03*
X768000Y703000D02*
D03*
X778000Y713000D02*
D03*
X768000D02*
D03*
X778000Y723000D02*
D03*
X768000D02*
D03*
X1053500Y546000D02*
D03*
X1043500Y536000D02*
D03*
X1053500D02*
D03*
X1043500Y526000D02*
D03*
X1053500D02*
D03*
D148*
X839000Y992000D02*
D03*
X798500Y990500D02*
D03*
X959500Y614500D02*
D03*
X890000Y1001000D02*
D03*
X1043500Y503500D02*
D03*
X737500Y542000D02*
D03*
X731500Y811500D02*
D03*
X1011500Y891500D02*
D03*
X731500Y703000D02*
D03*
X892500Y896500D02*
D03*
X1043500Y405500D02*
D03*
X869500Y786000D02*
D03*
X867500Y873000D02*
D03*
X979500Y738000D02*
D03*
X778000Y703000D02*
D03*
X1043500Y546000D02*
D03*
D149*
X1013500Y822000D02*
D03*
X906500Y1095000D02*
D03*
X838000Y1052000D02*
D03*
X775500Y431000D02*
D03*
X776000Y945500D02*
D03*
X803500Y668000D02*
D03*
X892000D02*
D03*
X1056000Y405500D02*
D03*
X980500Y668000D02*
D03*
X1098000Y405500D02*
D03*
D150*
X952000Y1038000D02*
D03*
X957000D02*
D03*
X952000Y1033000D02*
D03*
X957000D02*
D03*
X952000Y1028000D02*
D03*
X957000D02*
D03*
X952000Y1023000D02*
D03*
D151*
X957000D02*
D03*
D152*
X1144185Y847737D02*
D03*
Y850886D02*
D03*
Y844587D02*
D03*
Y854036D02*
D03*
Y841438D02*
D03*
Y857186D02*
D03*
Y838288D02*
D03*
Y860335D02*
D03*
X1146941Y846162D02*
D03*
Y852461D02*
D03*
Y843012D02*
D03*
Y855611D02*
D03*
Y839863D02*
D03*
Y858760D02*
D03*
X1144185Y918425D02*
D03*
Y921575D02*
D03*
Y915276D02*
D03*
Y924724D02*
D03*
Y912126D02*
D03*
Y927874D02*
D03*
Y908976D02*
D03*
Y931024D02*
D03*
X1146941Y916850D02*
D03*
Y923150D02*
D03*
Y913701D02*
D03*
Y926299D02*
D03*
Y910551D02*
D03*
Y929449D02*
D03*
D153*
X1148713Y866123D02*
D03*
Y832501D02*
D03*
X1167335Y866123D02*
D03*
Y832501D02*
D03*
X1148713Y936811D02*
D03*
Y903189D02*
D03*
X1167335Y936811D02*
D03*
Y903189D02*
D03*
D154*
X802000Y715000D02*
D03*
X1023773Y595232D02*
D03*
X1020839Y598166D02*
D03*
X954223Y779150D02*
D03*
X957343Y776075D02*
D03*
X963500Y774500D02*
D03*
X946500Y782000D02*
D03*
X967000Y784000D02*
D03*
X960500Y782500D02*
D03*
X934500Y771000D02*
D03*
X973312Y767888D02*
D03*
X1006500Y626500D02*
D03*
X1100500Y579500D02*
D03*
X1093900Y582000D02*
D03*
X769500Y1098000D02*
D03*
X783000Y1097000D02*
D03*
X902500Y1014000D02*
D03*
X911500Y1013500D02*
D03*
X935000Y747000D02*
D03*
X944925Y713070D02*
D03*
X941000Y721500D02*
D03*
X937700Y729500D02*
D03*
X932000Y698000D02*
D03*
X925000Y711600D02*
D03*
X916806Y697806D02*
D03*
X974961Y631000D02*
D03*
X938500Y634500D02*
D03*
X997000Y605000D02*
D03*
X982000Y608925D02*
D03*
X1019500Y590500D02*
D03*
X1045055Y592200D02*
D03*
X1011700Y603500D02*
D03*
X777025Y921688D02*
D03*
X772500Y966000D02*
D03*
X766700Y1047500D02*
D03*
Y1053700D02*
D03*
X767929Y753500D02*
D03*
X803400Y480000D02*
D03*
X816100D02*
D03*
X788100Y779700D02*
D03*
X780900Y781225D02*
D03*
X930500Y725900D02*
D03*
X982700Y1020300D02*
D03*
X994500Y1016000D02*
D03*
X982700D02*
D03*
X946800Y794100D02*
D03*
X832600Y711063D02*
D03*
X1016891Y747909D02*
D03*
X1026200Y546000D02*
D03*
X1143567Y517400D02*
D03*
X770700Y1070400D02*
D03*
X1122900Y832900D02*
D03*
X1132700Y771700D02*
D03*
X1151600Y777700D02*
D03*
X982100Y840800D02*
D03*
X983700Y836300D02*
D03*
X931500Y807500D02*
D03*
X957400Y818700D02*
D03*
X949900Y745400D02*
D03*
X924979Y767100D02*
D03*
X911500Y749100D02*
D03*
X931379Y773775D02*
D03*
X936968Y782268D02*
D03*
X1067000Y914600D02*
D03*
X806400Y459700D02*
D03*
X786200D02*
D03*
X922600D02*
D03*
X830011D02*
D03*
X933635Y794000D02*
D03*
X1039000Y827000D02*
D03*
X1155200Y770300D02*
D03*
X929700Y759800D02*
D03*
X925000Y773700D02*
D03*
X1073055Y607500D02*
D03*
X976800Y706900D02*
D03*
X926118Y795282D02*
D03*
X928304Y781200D02*
D03*
X928000Y754610D02*
D03*
X1170300Y750000D02*
D03*
X1133900Y922700D02*
D03*
X1164800Y738500D02*
D03*
X988600Y624647D02*
D03*
X1083600Y439400D02*
D03*
X1102100Y416100D02*
D03*
X1123700Y608540D02*
D03*
X1096461Y599139D02*
D03*
X1074800Y491700D02*
D03*
X1086700Y459700D02*
D03*
X1121400Y592000D02*
D03*
X1130236Y615240D02*
D03*
X1038000Y537100D02*
D03*
X1073600Y615200D02*
D03*
X821185Y819500D02*
D03*
X829100Y826100D02*
D03*
X877500Y913400D02*
D03*
X937200Y936100D02*
D03*
X1173200Y963300D02*
D03*
X835675Y700170D02*
D03*
X809700Y798775D02*
D03*
X779089Y797300D02*
D03*
X725700Y894900D02*
D03*
X1033616Y1018700D02*
D03*
X1119600Y933700D02*
D03*
X767025Y532000D02*
D03*
X898500Y865700D02*
D03*
X856800Y801300D02*
D03*
X844900Y681100D02*
D03*
X845602Y502500D02*
D03*
X883400Y520100D02*
D03*
X836376Y452500D02*
D03*
X869500Y535500D02*
D03*
X839500Y527200D02*
D03*
X878100Y523700D02*
D03*
X814200Y504400D02*
D03*
X911600Y859253D02*
D03*
X1086600Y518400D02*
D03*
X786100Y790900D02*
D03*
X911600Y827400D02*
D03*
X728100Y456800D02*
D03*
X746100Y747100D02*
D03*
X876000Y486822D02*
D03*
X907000Y482100D02*
D03*
X771700Y512000D02*
D03*
X785900Y496400D02*
D03*
X842100Y510000D02*
D03*
X770400Y525200D02*
D03*
X832900Y682700D02*
D03*
X814300Y759700D02*
D03*
X973800Y780600D02*
D03*
X997800Y986900D02*
D03*
X822300Y707700D02*
D03*
X771500Y824000D02*
D03*
X760300Y841300D02*
D03*
X756000Y806400D02*
D03*
X873200Y882900D02*
D03*
X777500Y741800D02*
D03*
X801869Y761573D02*
D03*
X832627Y735000D02*
D03*
X817000Y709200D02*
D03*
X807800Y759800D02*
D03*
X896100Y725500D02*
D03*
X849600Y688100D02*
D03*
X909400Y717700D02*
D03*
X821185Y759800D02*
D03*
X852300Y703900D02*
D03*
X856800Y701800D02*
D03*
X827305Y909905D02*
D03*
X812275Y900725D02*
D03*
X806100Y898700D02*
D03*
X802975Y909200D02*
D03*
X808800Y912925D02*
D03*
X797700Y903500D02*
D03*
X860200Y901200D02*
D03*
X796700Y891875D02*
D03*
X822000Y921500D02*
D03*
X801800Y919100D02*
D03*
X795900Y933700D02*
D03*
X790900Y806200D02*
D03*
X1131650Y529650D02*
D03*
X1123567Y516500D02*
D03*
X1091967Y493900D02*
D03*
X1090500Y447600D02*
D03*
X804000Y544500D02*
D03*
X811600Y514400D02*
D03*
X793000Y510600D02*
D03*
X839500Y778900D02*
D03*
X877600Y874800D02*
D03*
X774500Y819900D02*
D03*
X1154800Y1002400D02*
D03*
X1021780Y1022500D02*
D03*
X904400Y725500D02*
D03*
X1058900Y431500D02*
D03*
X978300Y403800D02*
D03*
X1121500Y767700D02*
D03*
X1158300Y781104D02*
D03*
X791300Y789100D02*
D03*
X819800Y787500D02*
D03*
X898200Y717800D02*
D03*
X808200Y766800D02*
D03*
X1121900Y898000D02*
D03*
X1113600Y517200D02*
D03*
X1151768Y699400D02*
D03*
X1170300Y729300D02*
D03*
X1111100Y504500D02*
D03*
X786500Y1137000D02*
D03*
X794400Y1148100D02*
D03*
X841800Y1146200D02*
D03*
X738100Y888300D02*
D03*
X737700Y791500D02*
D03*
X782800Y759800D02*
D03*
X912300Y1152400D02*
D03*
X1032500Y611600D02*
D03*
X1041800D02*
D03*
X1125300Y638000D02*
D03*
X1133700Y608400D02*
D03*
X1054600Y732900D02*
D03*
X992400Y635400D02*
D03*
X1053600Y739800D02*
D03*
X1019400D02*
D03*
X1035600Y722900D02*
D03*
X1078200Y419800D02*
D03*
X1069600Y437100D02*
D03*
X1006400Y403700D02*
D03*
X749200Y754100D02*
D03*
X777200Y747100D02*
D03*
X1093700Y461900D02*
D03*
X1073400Y482300D02*
D03*
X1083300Y489400D02*
D03*
X1101250Y457083D02*
D03*
X1103400Y452300D02*
D03*
X1126900Y505400D02*
D03*
X1128200Y417700D02*
D03*
X964000Y1030800D02*
D03*
X780700Y497800D02*
D03*
X797100Y496372D02*
D03*
X787700Y504700D02*
D03*
X1027200Y414000D02*
D03*
X953100Y995600D02*
D03*
X993400Y977300D02*
D03*
X1002800Y746500D02*
D03*
X1097400Y468300D02*
D03*
X780900Y763600D02*
D03*
X779800Y790800D02*
D03*
X825900Y715900D02*
D03*
X1101300Y490100D02*
D03*
X1092300Y489500D02*
D03*
X1118000Y460500D02*
D03*
X1108700Y528300D02*
D03*
X1135800Y517400D02*
D03*
X983300Y444500D02*
D03*
X1134400Y918300D02*
D03*
X786800Y746400D02*
D03*
X962500Y822500D02*
D03*
X1104600Y836100D02*
D03*
X1101300Y463300D02*
D03*
X822163Y780337D02*
D03*
X768400Y837200D02*
D03*
X1175500Y976000D02*
D03*
X1106200Y991500D02*
D03*
X1126300D02*
D03*
X1093800Y480663D02*
D03*
X811558Y521858D02*
D03*
X779800Y562600D02*
D03*
X833000D02*
D03*
X851900Y462800D02*
D03*
X764600D02*
D03*
X1172625Y823625D02*
D03*
X960900Y746600D02*
D03*
X1126300Y1011400D02*
D03*
X916757Y720775D02*
D03*
X1147661Y1005100D02*
D03*
X762100Y833300D02*
D03*
X884700Y848700D02*
D03*
X836724Y812699D02*
D03*
X807825Y903125D02*
D03*
X795900Y938500D02*
D03*
X823154Y806100D02*
D03*
X759000Y818400D02*
D03*
D155*
X948831Y757169D02*
D03*
X944500D02*
D03*
X940169D02*
D03*
X948831Y761500D02*
D03*
X944500D02*
D03*
X940169D02*
D03*
X948831Y765831D02*
D03*
X944500D02*
D03*
X940169D02*
D03*
X1021760Y613650D02*
D03*
Y609319D02*
D03*
X1017429Y613650D02*
D03*
Y609319D02*
D03*
M02*
