G04*
G04 #@! TF.GenerationSoftware,Altium Limited,Altium Designer,20.0.9 (164)*
G04*
G04 Layer_Color=2752767*
%FSLAX25Y25*%
%MOIN*%
G70*
G01*
G75*
%ADD170C,0.00200*%
%ADD171C,0.00267*%
D170*
X828200Y1011200D02*
Y1012800D01*
X829800D01*
Y1011200D01*
X828200D01*
X838200D02*
Y1012800D01*
X839800D01*
Y1011200D01*
X838200D01*
X828200Y1001200D02*
Y1002800D01*
X829800D01*
Y1001200D01*
X828200D01*
X838200D02*
Y1002800D01*
X839800D01*
Y1001200D01*
X838200D01*
X828200Y991200D02*
Y992800D01*
X829800D01*
Y991200D01*
X828200D01*
X838200D02*
Y992800D01*
X839800D01*
Y991200D01*
X838200D01*
X787700Y1009700D02*
Y1011300D01*
X789300D01*
Y1009700D01*
X787700D01*
X797700D02*
Y1011300D01*
X799300D01*
Y1009700D01*
X797700D01*
X787700Y999700D02*
Y1001300D01*
X789300D01*
Y999700D01*
X787700D01*
X797700D02*
Y1001300D01*
X799300D01*
Y999700D01*
X797700D01*
X787700Y989700D02*
Y991300D01*
X789300D01*
Y989700D01*
X787700D01*
X797700D02*
Y991300D01*
X799300D01*
Y989700D01*
X797700D01*
X958700Y613700D02*
Y615300D01*
X960300D01*
Y613700D01*
X958700D01*
Y603700D02*
Y605300D01*
X960300D01*
Y603700D01*
X958700D01*
Y593700D02*
Y595300D01*
X960300D01*
Y593700D01*
X958700D01*
Y583700D02*
Y585300D01*
X960300D01*
Y583700D01*
X958700D01*
Y573700D02*
Y575300D01*
X960300D01*
Y573700D01*
X958700D01*
Y563700D02*
Y565300D01*
X960300D01*
Y563700D01*
X958700D01*
Y553700D02*
Y555300D01*
X960300D01*
Y553700D01*
X958700D01*
Y543700D02*
Y545300D01*
X960300D01*
Y543700D01*
X958700D01*
Y533700D02*
Y535300D01*
X960300D01*
Y533700D01*
X958700D01*
Y523700D02*
Y525300D01*
X960300D01*
Y523700D01*
X958700D01*
Y513700D02*
Y515300D01*
X960300D01*
Y513700D01*
X958700D01*
Y503700D02*
Y505300D01*
X960300D01*
Y503700D01*
X958700D01*
Y493700D02*
Y495300D01*
X960300D01*
Y493700D01*
X958700D01*
Y483700D02*
Y485300D01*
X960300D01*
Y483700D01*
X958700D01*
Y473700D02*
Y475300D01*
X960300D01*
Y473700D01*
X958700D01*
Y463700D02*
Y465300D01*
X960300D01*
Y463700D01*
X958700D01*
Y453700D02*
Y455300D01*
X960300D01*
Y453700D01*
X958700D01*
Y443700D02*
Y445300D01*
X960300D01*
Y443700D01*
X958700D01*
Y433700D02*
Y435300D01*
X960300D01*
Y433700D01*
X958700D01*
Y423700D02*
Y425300D01*
X960300D01*
Y423700D01*
X958700D01*
Y413700D02*
Y415300D01*
X960300D01*
Y413700D01*
X958700D01*
Y403700D02*
Y405300D01*
X960300D01*
Y403700D01*
X958700D01*
X889200Y1020200D02*
Y1021800D01*
X890800D01*
Y1020200D01*
X889200D01*
Y1000200D02*
Y1001800D01*
X890800D01*
Y1000200D01*
X889200D01*
Y1010200D02*
Y1011800D01*
X890800D01*
Y1010200D01*
X889200D01*
Y1030200D02*
Y1031800D01*
X890800D01*
Y1030200D01*
X889200D01*
Y1040200D02*
Y1041800D01*
X890800D01*
Y1040200D01*
X889200D01*
Y1050200D02*
Y1051800D01*
X890800D01*
Y1050200D01*
X889200D01*
Y1060200D02*
Y1061800D01*
X890800D01*
Y1060200D01*
X889200D01*
X1012700Y821200D02*
Y822800D01*
X1014300D01*
Y821200D01*
X1012700D01*
Y831200D02*
Y832800D01*
X1014300D01*
Y831200D01*
X1012700D01*
X1022700Y821200D02*
Y822800D01*
X1024300D01*
Y821200D01*
X1022700D01*
Y831200D02*
Y832800D01*
X1024300D01*
Y831200D01*
X1022700D01*
X1032700Y821200D02*
Y822800D01*
X1034300D01*
Y821200D01*
X1032700D01*
Y831200D02*
Y832800D01*
X1034300D01*
Y831200D01*
X1032700D01*
X905700Y1094200D02*
Y1095800D01*
X907300D01*
Y1094200D01*
X905700D01*
X895700D02*
Y1095800D01*
X897300D01*
Y1094200D01*
X895700D01*
X885700D02*
Y1095800D01*
X887300D01*
Y1094200D01*
X885700D01*
X777200Y1051200D02*
Y1052800D01*
X778800D01*
Y1051200D01*
X777200D01*
X787200D02*
Y1052800D01*
X788800D01*
Y1051200D01*
X787200D01*
X797200D02*
Y1052800D01*
X798800D01*
Y1051200D01*
X797200D01*
X807200D02*
Y1052800D01*
X808800D01*
Y1051200D01*
X807200D01*
X827200D02*
Y1052800D01*
X828800D01*
Y1051200D01*
X827200D01*
X837200D02*
Y1052800D01*
X838800D01*
Y1051200D01*
X837200D01*
X817200D02*
Y1052800D01*
X818800D01*
Y1051200D01*
X817200D01*
X1042700Y472700D02*
Y474300D01*
X1044300D01*
Y472700D01*
X1042700D01*
Y482700D02*
Y484300D01*
X1044300D01*
Y482700D01*
X1042700D01*
Y492700D02*
Y494300D01*
X1044300D01*
Y492700D01*
X1042700D01*
Y502700D02*
Y504300D01*
X1044300D01*
Y502700D01*
X1042700D01*
X744700Y430200D02*
Y431800D01*
X746300D01*
Y430200D01*
X744700D01*
X754700D02*
Y431800D01*
X756300D01*
Y430200D01*
X754700D01*
X764700D02*
Y431800D01*
X766300D01*
Y430200D01*
X764700D01*
X774700D02*
Y431800D01*
X776300D01*
Y430200D01*
X774700D01*
X736700Y511200D02*
Y512800D01*
X738300D01*
Y511200D01*
X736700D01*
Y521200D02*
Y522800D01*
X738300D01*
Y521200D01*
X736700D01*
Y531200D02*
Y532800D01*
X738300D01*
Y531200D01*
X736700D01*
Y541200D02*
Y542800D01*
X738300D01*
Y541200D01*
X736700D01*
X775200Y944700D02*
Y946300D01*
X776800D01*
Y944700D01*
X775200D01*
X935200D02*
Y946300D01*
X936800D01*
Y944700D01*
X935200D01*
X925200D02*
Y946300D01*
X926800D01*
Y944700D01*
X925200D01*
X915200D02*
Y946300D01*
X916800D01*
Y944700D01*
X915200D01*
X905200D02*
Y946300D01*
X906800D01*
Y944700D01*
X905200D01*
X895200D02*
Y946300D01*
X896800D01*
Y944700D01*
X895200D01*
X885200D02*
Y946300D01*
X886800D01*
Y944700D01*
X885200D01*
X875200D02*
Y946300D01*
X876800D01*
Y944700D01*
X875200D01*
X865200D02*
Y946300D01*
X866800D01*
Y944700D01*
X865200D01*
X855200D02*
Y946300D01*
X856800D01*
Y944700D01*
X855200D01*
X845200D02*
Y946300D01*
X846800D01*
Y944700D01*
X845200D01*
X835200D02*
Y946300D01*
X836800D01*
Y944700D01*
X835200D01*
X825200D02*
Y946300D01*
X826800D01*
Y944700D01*
X825200D01*
X815200D02*
Y946300D01*
X816800D01*
Y944700D01*
X815200D01*
X805200D02*
Y946300D01*
X806800D01*
Y944700D01*
X805200D01*
X795200D02*
Y946300D01*
X796800D01*
Y944700D01*
X795200D01*
X785200D02*
Y946300D01*
X786800D01*
Y944700D01*
X785200D01*
X730700Y810700D02*
Y812300D01*
X732300D01*
Y810700D01*
X730700D01*
Y820700D02*
Y822300D01*
X732300D01*
Y820700D01*
X730700D01*
Y830700D02*
Y832300D01*
X732300D01*
Y830700D01*
X730700D01*
Y840700D02*
Y842300D01*
X732300D01*
Y840700D01*
X730700D01*
Y850700D02*
Y852300D01*
X732300D01*
Y850700D01*
X730700D01*
Y860700D02*
Y862300D01*
X732300D01*
Y860700D01*
X730700D01*
Y870700D02*
Y872300D01*
X732300D01*
Y870700D01*
X730700D01*
Y880700D02*
Y882300D01*
X732300D01*
Y880700D01*
X730700D01*
X1010700Y890700D02*
Y892300D01*
X1012300D01*
Y890700D01*
X1010700D01*
Y880700D02*
Y882300D01*
X1012300D01*
Y880700D01*
X1010700D01*
X730700Y702200D02*
Y703800D01*
X732300D01*
Y702200D01*
X730700D01*
Y712200D02*
Y713800D01*
X732300D01*
Y712200D01*
X730700D01*
Y722200D02*
Y723800D01*
X732300D01*
Y722200D01*
X730700D01*
Y732200D02*
Y733800D01*
X732300D01*
Y732200D01*
X730700D01*
Y742200D02*
Y743800D01*
X732300D01*
Y742200D01*
X730700D01*
Y752200D02*
Y753800D01*
X732300D01*
Y752200D01*
X730700D01*
Y762200D02*
Y763800D01*
X732300D01*
Y762200D01*
X730700D01*
Y772200D02*
Y773800D01*
X732300D01*
Y772200D01*
X730700D01*
X891700Y895700D02*
Y897300D01*
X893300D01*
Y895700D01*
X891700D01*
Y735700D02*
Y737300D01*
X893300D01*
Y735700D01*
X891700D01*
Y745700D02*
Y747300D01*
X893300D01*
Y745700D01*
X891700D01*
Y755700D02*
Y757300D01*
X893300D01*
Y755700D01*
X891700D01*
Y765700D02*
Y767300D01*
X893300D01*
Y765700D01*
X891700D01*
Y775700D02*
Y777300D01*
X893300D01*
Y775700D01*
X891700D01*
Y785700D02*
Y787300D01*
X893300D01*
Y785700D01*
X891700D01*
Y795700D02*
Y797300D01*
X893300D01*
Y795700D01*
X891700D01*
Y805700D02*
Y807300D01*
X893300D01*
Y805700D01*
X891700D01*
Y815700D02*
Y817300D01*
X893300D01*
Y815700D01*
X891700D01*
Y825700D02*
Y827300D01*
X893300D01*
Y825700D01*
X891700D01*
Y835700D02*
Y837300D01*
X893300D01*
Y835700D01*
X891700D01*
Y845700D02*
Y847300D01*
X893300D01*
Y845700D01*
X891700D01*
Y855700D02*
Y857300D01*
X893300D01*
Y855700D01*
X891700D01*
Y865700D02*
Y867300D01*
X893300D01*
Y865700D01*
X891700D01*
Y875700D02*
Y877300D01*
X893300D01*
Y875700D01*
X891700D01*
Y885700D02*
Y887300D01*
X893300D01*
Y885700D01*
X891700D01*
X802700Y667200D02*
Y668800D01*
X804300D01*
Y667200D01*
X802700D01*
X792700D02*
Y668800D01*
X794300D01*
Y667200D01*
X792700D01*
X782700D02*
Y668800D01*
X784300D01*
Y667200D01*
X782700D01*
X772700D02*
Y668800D01*
X774300D01*
Y667200D01*
X772700D01*
X762700D02*
Y668800D01*
X764300D01*
Y667200D01*
X762700D01*
X752700D02*
Y668800D01*
X754300D01*
Y667200D01*
X752700D01*
X742700D02*
Y668800D01*
X744300D01*
Y667200D01*
X742700D01*
X732700D02*
Y668800D01*
X734300D01*
Y667200D01*
X732700D01*
X891200D02*
Y668800D01*
X892800D01*
Y667200D01*
X891200D01*
X881200D02*
Y668800D01*
X882800D01*
Y667200D01*
X881200D01*
X871200D02*
Y668800D01*
X872800D01*
Y667200D01*
X871200D01*
X861200D02*
Y668800D01*
X862800D01*
Y667200D01*
X861200D01*
X851200D02*
Y668800D01*
X852800D01*
Y667200D01*
X851200D01*
X841200D02*
Y668800D01*
X842800D01*
Y667200D01*
X841200D01*
X831200D02*
Y668800D01*
X832800D01*
Y667200D01*
X831200D01*
X821200D02*
Y668800D01*
X822800D01*
Y667200D01*
X821200D01*
X1042700Y404700D02*
Y406300D01*
X1044300D01*
Y404700D01*
X1042700D01*
Y414700D02*
Y416300D01*
X1044300D01*
Y414700D01*
X1042700D01*
Y424700D02*
Y426300D01*
X1044300D01*
Y424700D01*
X1042700D01*
Y434700D02*
Y436300D01*
X1044300D01*
Y434700D01*
X1042700D01*
Y444700D02*
Y446300D01*
X1044300D01*
Y444700D01*
X1042700D01*
Y454700D02*
Y456300D01*
X1044300D01*
Y454700D01*
X1042700D01*
X1144185Y846937D02*
X1143385Y848537D01*
X1144985D01*
X1144185Y846937D01*
Y850086D02*
X1143385Y851686D01*
X1144985D01*
X1144185Y850086D01*
Y843787D02*
X1143385Y845387D01*
X1144985D01*
X1144185Y843787D01*
Y853236D02*
X1143385Y854836D01*
X1144985D01*
X1144185Y853236D01*
Y840638D02*
X1143385Y842238D01*
X1144985D01*
X1144185Y840638D01*
Y856386D02*
X1143385Y857986D01*
X1144985D01*
X1144185Y856386D01*
Y837488D02*
X1143385Y839088D01*
X1144985D01*
X1144185Y837488D01*
Y859535D02*
X1143385Y861135D01*
X1144985D01*
X1144185Y859535D01*
X1146941Y845362D02*
X1146141Y846962D01*
X1147741D01*
X1146941Y845362D01*
Y851661D02*
X1146141Y853261D01*
X1147741D01*
X1146941Y851661D01*
Y842212D02*
X1146141Y843812D01*
X1147741D01*
X1146941Y842212D01*
Y854811D02*
X1146141Y856411D01*
X1147741D01*
X1146941Y854811D01*
Y839063D02*
X1146141Y840663D01*
X1147741D01*
X1146941Y839063D01*
Y857960D02*
X1146141Y859560D01*
X1147741D01*
X1146941Y857960D01*
X1148713Y865323D02*
X1149113Y865723D01*
X1149513D01*
X1149113Y866123D01*
X1149513Y866523D01*
X1149113D01*
X1148713Y866923D01*
X1148313Y866523D01*
X1147913D01*
X1148313Y866123D01*
X1147913Y865723D01*
X1148313D01*
X1148713Y865323D01*
Y831701D02*
X1149113Y832101D01*
X1149513D01*
X1149113Y832501D01*
X1149513Y832901D01*
X1149113D01*
X1148713Y833301D01*
X1148313Y832901D01*
X1147913D01*
X1148313Y832501D01*
X1147913Y832101D01*
X1148313D01*
X1148713Y831701D01*
X1167335Y865323D02*
X1167735Y865723D01*
X1168135D01*
X1167735Y866123D01*
X1168135Y866523D01*
X1167735D01*
X1167335Y866923D01*
X1166935Y866523D01*
X1166535D01*
X1166935Y866123D01*
X1166535Y865723D01*
X1166935D01*
X1167335Y865323D01*
Y831701D02*
X1167735Y832101D01*
X1168135D01*
X1167735Y832501D01*
X1168135Y832901D01*
X1167735D01*
X1167335Y833301D01*
X1166935Y832901D01*
X1166535D01*
X1166935Y832501D01*
X1166535Y832101D01*
X1166935D01*
X1167335Y831701D01*
X1085200Y404700D02*
Y406300D01*
X1086800D01*
Y404700D01*
X1085200D01*
X1075200D02*
Y406300D01*
X1076800D01*
Y404700D01*
X1075200D01*
X1065200D02*
Y406300D01*
X1066800D01*
Y404700D01*
X1065200D01*
X1055200D02*
Y406300D01*
X1056800D01*
Y404700D01*
X1055200D01*
X868700Y785200D02*
Y786800D01*
X870300D01*
Y785200D01*
X868700D01*
Y775200D02*
Y776800D01*
X870300D01*
Y775200D01*
X868700D01*
Y765200D02*
Y766800D01*
X870300D01*
Y765200D01*
X868700D01*
Y755200D02*
Y756800D01*
X870300D01*
Y755200D01*
X868700D01*
Y745200D02*
Y746800D01*
X870300D01*
Y745200D01*
X868700D01*
Y735200D02*
Y736800D01*
X870300D01*
Y735200D01*
X868700D01*
Y725200D02*
Y726800D01*
X870300D01*
Y725200D01*
X868700D01*
Y715200D02*
Y716800D01*
X870300D01*
Y715200D01*
X868700D01*
X979700Y667200D02*
Y668800D01*
X981300D01*
Y667200D01*
X979700D01*
X969700D02*
Y668800D01*
X971300D01*
Y667200D01*
X969700D01*
X959700D02*
Y668800D01*
X961300D01*
Y667200D01*
X959700D01*
X949700D02*
Y668800D01*
X951300D01*
Y667200D01*
X949700D01*
X939700D02*
Y668800D01*
X941300D01*
Y667200D01*
X939700D01*
X929700D02*
Y668800D01*
X931300D01*
Y667200D01*
X929700D01*
X919700D02*
Y668800D01*
X921300D01*
Y667200D01*
X919700D01*
X909700D02*
Y668800D01*
X911300D01*
Y667200D01*
X909700D01*
X1097200Y404700D02*
Y406300D01*
X1098800D01*
Y404700D01*
X1097200D01*
X1107200D02*
Y406300D01*
X1108800D01*
Y404700D01*
X1107200D01*
X1117200D02*
Y406300D01*
X1118800D01*
Y404700D01*
X1117200D01*
X1127200D02*
Y406300D01*
X1128800D01*
Y404700D01*
X1127200D01*
X1137200D02*
Y406300D01*
X1138800D01*
Y404700D01*
X1137200D01*
X1147200D02*
Y406300D01*
X1148800D01*
Y404700D01*
X1147200D01*
X866700Y872200D02*
Y873800D01*
X868300D01*
Y872200D01*
X866700D01*
Y882200D02*
Y883800D01*
X868300D01*
Y882200D01*
X866700D01*
Y892200D02*
Y893800D01*
X868300D01*
Y892200D01*
X866700D01*
Y902200D02*
Y903800D01*
X868300D01*
Y902200D01*
X866700D01*
Y912200D02*
Y913800D01*
X868300D01*
Y912200D01*
X866700D01*
Y922200D02*
Y923800D01*
X868300D01*
Y922200D01*
X866700D01*
X978700Y737200D02*
Y738800D01*
X980300D01*
Y737200D01*
X978700D01*
X968700D02*
Y738800D01*
X970300D01*
Y737200D01*
X968700D01*
X978700Y747200D02*
Y748800D01*
X980300D01*
Y747200D01*
X978700D01*
X968700D02*
Y748800D01*
X970300D01*
Y747200D01*
X968700D01*
X978700Y757200D02*
Y758800D01*
X980300D01*
Y757200D01*
X978700D01*
X968700D02*
Y758800D01*
X970300D01*
Y757200D01*
X968700D01*
X1144185Y917625D02*
X1143385Y919225D01*
X1144985D01*
X1144185Y917625D01*
Y920775D02*
X1143385Y922375D01*
X1144985D01*
X1144185Y920775D01*
Y914476D02*
X1143385Y916076D01*
X1144985D01*
X1144185Y914476D01*
Y923924D02*
X1143385Y925524D01*
X1144985D01*
X1144185Y923924D01*
Y911326D02*
X1143385Y912926D01*
X1144985D01*
X1144185Y911326D01*
Y927074D02*
X1143385Y928674D01*
X1144985D01*
X1144185Y927074D01*
Y908176D02*
X1143385Y909776D01*
X1144985D01*
X1144185Y908176D01*
Y930224D02*
X1143385Y931824D01*
X1144985D01*
X1144185Y930224D01*
X1146941Y916050D02*
X1146141Y917650D01*
X1147741D01*
X1146941Y916050D01*
Y922350D02*
X1146141Y923950D01*
X1147741D01*
X1146941Y922350D01*
Y912901D02*
X1146141Y914501D01*
X1147741D01*
X1146941Y912901D01*
Y925499D02*
X1146141Y927099D01*
X1147741D01*
X1146941Y925499D01*
Y909751D02*
X1146141Y911351D01*
X1147741D01*
X1146941Y909751D01*
Y928649D02*
X1146141Y930249D01*
X1147741D01*
X1146941Y928649D01*
X1148713Y936011D02*
X1149113Y936411D01*
X1149513D01*
X1149113Y936811D01*
X1149513Y937211D01*
X1149113D01*
X1148713Y937611D01*
X1148313Y937211D01*
X1147913D01*
X1148313Y936811D01*
X1147913Y936411D01*
X1148313D01*
X1148713Y936011D01*
Y902389D02*
X1149113Y902789D01*
X1149513D01*
X1149113Y903189D01*
X1149513Y903589D01*
X1149113D01*
X1148713Y903989D01*
X1148313Y903589D01*
X1147913D01*
X1148313Y903189D01*
X1147913Y902789D01*
X1148313D01*
X1148713Y902389D01*
X1167335Y936011D02*
X1167735Y936411D01*
X1168135D01*
X1167735Y936811D01*
X1168135Y937211D01*
X1167735D01*
X1167335Y937611D01*
X1166935Y937211D01*
X1166535D01*
X1166935Y936811D01*
X1166535Y936411D01*
X1166935D01*
X1167335Y936011D01*
Y902389D02*
X1167735Y902789D01*
X1168135D01*
X1167735Y903189D01*
X1168135Y903589D01*
X1167735D01*
X1167335Y903989D01*
X1166935Y903589D01*
X1166535D01*
X1166935Y903189D01*
X1166535Y902789D01*
X1166935D01*
X1167335Y902389D01*
X777200Y702200D02*
Y703800D01*
X778800D01*
Y702200D01*
X777200D01*
X767200D02*
Y703800D01*
X768800D01*
Y702200D01*
X767200D01*
X777200Y712200D02*
Y713800D01*
X778800D01*
Y712200D01*
X777200D01*
X767200D02*
Y713800D01*
X768800D01*
Y712200D01*
X767200D01*
X777200Y722200D02*
Y723800D01*
X778800D01*
Y722200D01*
X777200D01*
X767200D02*
Y723800D01*
X768800D01*
Y722200D01*
X767200D01*
X1042700Y545200D02*
Y546800D01*
X1044300D01*
Y545200D01*
X1042700D01*
X1052700D02*
Y546800D01*
X1054300D01*
Y545200D01*
X1052700D01*
X1042700Y535200D02*
Y536800D01*
X1044300D01*
Y535200D01*
X1042700D01*
X1052700D02*
Y536800D01*
X1054300D01*
Y535200D01*
X1052700D01*
X1042700Y525200D02*
Y526800D01*
X1044300D01*
Y525200D01*
X1042700D01*
X1052700D02*
Y526800D01*
X1054300D01*
Y525200D01*
X1052700D01*
X802000Y714200D02*
X801200Y715800D01*
X802800D01*
X802000Y714200D01*
X1023773Y594432D02*
X1022973Y596032D01*
X1024573D01*
X1023773Y594432D01*
X1020839Y597366D02*
X1020039Y598966D01*
X1021639D01*
X1020839Y597366D01*
X954223Y778350D02*
X953423Y779950D01*
X955023D01*
X954223Y778350D01*
X957343Y775275D02*
X956543Y776875D01*
X958143D01*
X957343Y775275D01*
X963500Y773700D02*
X962700Y775300D01*
X964300D01*
X963500Y773700D01*
X946500Y781200D02*
X945700Y782800D01*
X947300D01*
X946500Y781200D01*
X967000Y783200D02*
X966200Y784800D01*
X967800D01*
X967000Y783200D01*
X960500Y781700D02*
X959700Y783300D01*
X961300D01*
X960500Y781700D01*
X934500Y770200D02*
X933700Y771800D01*
X935300D01*
X934500Y770200D01*
X973312Y767088D02*
X972512Y768688D01*
X974112D01*
X973312Y767088D01*
X1006500Y625700D02*
X1005700Y627300D01*
X1007300D01*
X1006500Y625700D01*
X1100500Y578700D02*
X1099700Y580300D01*
X1101300D01*
X1100500Y578700D01*
X1093900Y581200D02*
X1093100Y582800D01*
X1094700D01*
X1093900Y581200D01*
X769500Y1097200D02*
X768700Y1098800D01*
X770300D01*
X769500Y1097200D01*
X783000Y1096200D02*
X782200Y1097800D01*
X783800D01*
X783000Y1096200D01*
X902500Y1013200D02*
X901700Y1014800D01*
X903300D01*
X902500Y1013200D01*
X911500Y1012700D02*
X910700Y1014300D01*
X912300D01*
X911500Y1012700D01*
X935000Y746200D02*
X934200Y747800D01*
X935800D01*
X935000Y746200D01*
X944925Y712270D02*
X944125Y713870D01*
X945725D01*
X944925Y712270D01*
X941000Y720700D02*
X940200Y722300D01*
X941800D01*
X941000Y720700D01*
X937700Y728700D02*
X936900Y730300D01*
X938500D01*
X937700Y728700D01*
X932000Y697200D02*
X931200Y698800D01*
X932800D01*
X932000Y697200D01*
X925000Y710800D02*
X924200Y712400D01*
X925800D01*
X925000Y710800D01*
X916806Y697006D02*
X916006Y698606D01*
X917606D01*
X916806Y697006D01*
X974961Y630200D02*
X974161Y631800D01*
X975761D01*
X974961Y630200D01*
X938500Y633700D02*
X937700Y635300D01*
X939300D01*
X938500Y633700D01*
X997000Y604200D02*
X996200Y605800D01*
X997800D01*
X997000Y604200D01*
X982000Y608125D02*
X981200Y609725D01*
X982800D01*
X982000Y608125D01*
X1019500Y589700D02*
X1018700Y591300D01*
X1020300D01*
X1019500Y589700D01*
X1045055Y591400D02*
X1044255Y593000D01*
X1045855D01*
X1045055Y591400D01*
X1011700Y602700D02*
X1010900Y604300D01*
X1012500D01*
X1011700Y602700D01*
X777025Y920887D02*
X776225Y922488D01*
X777825D01*
X777025Y920887D01*
X772500Y965200D02*
X771700Y966800D01*
X773300D01*
X772500Y965200D01*
X766700Y1046700D02*
X765900Y1048300D01*
X767500D01*
X766700Y1046700D01*
Y1052900D02*
X765900Y1054500D01*
X767500D01*
X766700Y1052900D01*
X767929Y752700D02*
X767129Y754300D01*
X768729D01*
X767929Y752700D01*
X803400Y479200D02*
X802600Y480800D01*
X804200D01*
X803400Y479200D01*
X816100D02*
X815300Y480800D01*
X816900D01*
X816100Y479200D01*
X788100Y778900D02*
X787300Y780500D01*
X788900D01*
X788100Y778900D01*
X780900Y780425D02*
X780100Y782025D01*
X781700D01*
X780900Y780425D01*
X930500Y725100D02*
X929700Y726700D01*
X931300D01*
X930500Y725100D01*
X982700Y1019500D02*
X981900Y1021100D01*
X983500D01*
X982700Y1019500D01*
X994500Y1015200D02*
X993700Y1016800D01*
X995300D01*
X994500Y1015200D01*
X982700D02*
X981900Y1016800D01*
X983500D01*
X982700Y1015200D01*
X946800Y793300D02*
X946000Y794900D01*
X947600D01*
X946800Y793300D01*
X832600Y710263D02*
X831800Y711863D01*
X833400D01*
X832600Y710263D01*
X1016891Y747109D02*
X1016091Y748709D01*
X1017691D01*
X1016891Y747109D01*
X1026200Y545200D02*
X1025400Y546800D01*
X1027000D01*
X1026200Y545200D01*
X1143567Y516600D02*
X1142767Y518200D01*
X1144367D01*
X1143567Y516600D01*
X770700Y1069600D02*
X769900Y1071200D01*
X771500D01*
X770700Y1069600D01*
X1122900Y832100D02*
X1122100Y833700D01*
X1123700D01*
X1122900Y832100D01*
X1132700Y770900D02*
X1131900Y772500D01*
X1133500D01*
X1132700Y770900D01*
X1151600Y776900D02*
X1150800Y778500D01*
X1152400D01*
X1151600Y776900D01*
X982100Y840000D02*
X981300Y841600D01*
X982900D01*
X982100Y840000D01*
X983700Y835500D02*
X982900Y837100D01*
X984500D01*
X983700Y835500D01*
X931500Y806700D02*
X930700Y808300D01*
X932300D01*
X931500Y806700D01*
X957400Y817900D02*
X956600Y819500D01*
X958200D01*
X957400Y817900D01*
X949900Y744600D02*
X949100Y746200D01*
X950700D01*
X949900Y744600D01*
X924979Y766300D02*
X924179Y767900D01*
X925779D01*
X924979Y766300D01*
X911500Y748300D02*
X910700Y749900D01*
X912300D01*
X911500Y748300D01*
X931379Y772975D02*
X930579Y774575D01*
X932179D01*
X931379Y772975D01*
X936968Y781468D02*
X936168Y783068D01*
X937768D01*
X936968Y781468D01*
X1067000Y913800D02*
X1066200Y915400D01*
X1067800D01*
X1067000Y913800D01*
X806400Y458900D02*
X805600Y460500D01*
X807200D01*
X806400Y458900D01*
X786200D02*
X785400Y460500D01*
X787000D01*
X786200Y458900D01*
X922600D02*
X921800Y460500D01*
X923400D01*
X922600Y458900D01*
X830011D02*
X829211Y460500D01*
X830811D01*
X830011Y458900D01*
X933635Y793200D02*
X932835Y794800D01*
X934435D01*
X933635Y793200D01*
X1039000Y826200D02*
X1038200Y827800D01*
X1039800D01*
X1039000Y826200D01*
X1155200Y769500D02*
X1154400Y771100D01*
X1156000D01*
X1155200Y769500D01*
X929700Y759000D02*
X928900Y760600D01*
X930500D01*
X929700Y759000D01*
X925000Y772900D02*
X924200Y774500D01*
X925800D01*
X925000Y772900D01*
X1073055Y606700D02*
X1072255Y608300D01*
X1073855D01*
X1073055Y606700D01*
X976800Y706100D02*
X976000Y707700D01*
X977600D01*
X976800Y706100D01*
X926118Y794482D02*
X925318Y796082D01*
X926918D01*
X926118Y794482D01*
X928304Y780400D02*
X927504Y782000D01*
X929104D01*
X928304Y780400D01*
X928000Y753810D02*
X927200Y755410D01*
X928800D01*
X928000Y753810D01*
X1170300Y749200D02*
X1169500Y750800D01*
X1171100D01*
X1170300Y749200D01*
X1133900Y921900D02*
X1133100Y923500D01*
X1134700D01*
X1133900Y921900D01*
X1164800Y737700D02*
X1164000Y739300D01*
X1165600D01*
X1164800Y737700D01*
X988600Y623847D02*
X987800Y625447D01*
X989400D01*
X988600Y623847D01*
X1083600Y438600D02*
X1082800Y440200D01*
X1084400D01*
X1083600Y438600D01*
X1102100Y415300D02*
X1101300Y416900D01*
X1102900D01*
X1102100Y415300D01*
X1123700Y607740D02*
X1122900Y609340D01*
X1124500D01*
X1123700Y607740D01*
X1096461Y598339D02*
X1095661Y599939D01*
X1097261D01*
X1096461Y598339D01*
X1074800Y490900D02*
X1074000Y492500D01*
X1075600D01*
X1074800Y490900D01*
X1086700Y458900D02*
X1085900Y460500D01*
X1087500D01*
X1086700Y458900D01*
X1121400Y591200D02*
X1120600Y592800D01*
X1122200D01*
X1121400Y591200D01*
X1130236Y614440D02*
X1129436Y616040D01*
X1131036D01*
X1130236Y614440D01*
X1038000Y536300D02*
X1037200Y537900D01*
X1038800D01*
X1038000Y536300D01*
X1073600Y614400D02*
X1072800Y616000D01*
X1074400D01*
X1073600Y614400D01*
X821185Y818700D02*
X820385Y820300D01*
X821985D01*
X821185Y818700D01*
X829100Y825300D02*
X828300Y826900D01*
X829900D01*
X829100Y825300D01*
X877500Y912600D02*
X876700Y914200D01*
X878300D01*
X877500Y912600D01*
X937200Y935300D02*
X936400Y936900D01*
X938000D01*
X937200Y935300D01*
X1173200Y962500D02*
X1172400Y964100D01*
X1174000D01*
X1173200Y962500D01*
X835675Y699370D02*
X834875Y700970D01*
X836475D01*
X835675Y699370D01*
X809700Y797975D02*
X808900Y799575D01*
X810500D01*
X809700Y797975D01*
X779089Y796500D02*
X778289Y798100D01*
X779889D01*
X779089Y796500D01*
X725700Y894100D02*
X724900Y895700D01*
X726500D01*
X725700Y894100D01*
X1033616Y1017900D02*
X1032816Y1019500D01*
X1034416D01*
X1033616Y1017900D01*
X1119600Y932900D02*
X1118800Y934500D01*
X1120400D01*
X1119600Y932900D01*
X767025Y531200D02*
X766225Y532800D01*
X767825D01*
X767025Y531200D01*
X898500Y864900D02*
X897700Y866500D01*
X899300D01*
X898500Y864900D01*
X856800Y800500D02*
X856000Y802100D01*
X857600D01*
X856800Y800500D01*
X844900Y680300D02*
X844100Y681900D01*
X845700D01*
X844900Y680300D01*
X845602Y501700D02*
X844802Y503300D01*
X846402D01*
X845602Y501700D01*
X883400Y519300D02*
X882600Y520900D01*
X884200D01*
X883400Y519300D01*
X836376Y451700D02*
X835576Y453300D01*
X837176D01*
X836376Y451700D01*
X869500Y534700D02*
X868700Y536300D01*
X870300D01*
X869500Y534700D01*
X839500Y526400D02*
X838700Y528000D01*
X840300D01*
X839500Y526400D01*
X878100Y522900D02*
X877300Y524500D01*
X878900D01*
X878100Y522900D01*
X814200Y503600D02*
X813400Y505200D01*
X815000D01*
X814200Y503600D01*
X911600Y858453D02*
X910800Y860053D01*
X912400D01*
X911600Y858453D01*
X1086600Y517600D02*
X1085800Y519200D01*
X1087400D01*
X1086600Y517600D01*
X786100Y790100D02*
X785300Y791700D01*
X786900D01*
X786100Y790100D01*
X911600Y826600D02*
X910800Y828200D01*
X912400D01*
X911600Y826600D01*
X728100Y456000D02*
X727300Y457600D01*
X728900D01*
X728100Y456000D01*
X746100Y746300D02*
X745300Y747900D01*
X746900D01*
X746100Y746300D01*
X876000Y486022D02*
X875200Y487622D01*
X876800D01*
X876000Y486022D01*
X907000Y481300D02*
X906200Y482900D01*
X907800D01*
X907000Y481300D01*
X771700Y511200D02*
X770900Y512800D01*
X772500D01*
X771700Y511200D01*
X785900Y495600D02*
X785100Y497200D01*
X786700D01*
X785900Y495600D01*
X842100Y509200D02*
X841300Y510800D01*
X842900D01*
X842100Y509200D01*
X770400Y524400D02*
X769600Y526000D01*
X771200D01*
X770400Y524400D01*
X832900Y681900D02*
X832100Y683500D01*
X833700D01*
X832900Y681900D01*
X814300Y758900D02*
X813500Y760500D01*
X815100D01*
X814300Y758900D01*
X973800Y779800D02*
X973000Y781400D01*
X974600D01*
X973800Y779800D01*
X997800Y986100D02*
X997000Y987700D01*
X998600D01*
X997800Y986100D01*
X822300Y706900D02*
X821500Y708500D01*
X823100D01*
X822300Y706900D01*
X771500Y823200D02*
X770700Y824800D01*
X772300D01*
X771500Y823200D01*
X760300Y840500D02*
X759500Y842100D01*
X761100D01*
X760300Y840500D01*
X756000Y805600D02*
X755200Y807200D01*
X756800D01*
X756000Y805600D01*
X873200Y882100D02*
X872400Y883700D01*
X874000D01*
X873200Y882100D01*
X777500Y741000D02*
X776700Y742600D01*
X778300D01*
X777500Y741000D01*
X801869Y760773D02*
X801069Y762373D01*
X802669D01*
X801869Y760773D01*
X832627Y734200D02*
X831827Y735800D01*
X833427D01*
X832627Y734200D01*
X817000Y708400D02*
X816200Y710000D01*
X817800D01*
X817000Y708400D01*
X807800Y759000D02*
X807000Y760600D01*
X808600D01*
X807800Y759000D01*
X896100Y724700D02*
X895300Y726300D01*
X896900D01*
X896100Y724700D01*
X849600Y687300D02*
X848800Y688900D01*
X850400D01*
X849600Y687300D01*
X909400Y716900D02*
X908600Y718500D01*
X910200D01*
X909400Y716900D01*
X821185Y759000D02*
X820385Y760600D01*
X821985D01*
X821185Y759000D01*
X852300Y703100D02*
X851500Y704700D01*
X853100D01*
X852300Y703100D01*
X856800Y701000D02*
X856000Y702600D01*
X857600D01*
X856800Y701000D01*
X827305Y909105D02*
X826505Y910705D01*
X828105D01*
X827305Y909105D01*
X812275Y899925D02*
X811475Y901525D01*
X813075D01*
X812275Y899925D01*
X806100Y897900D02*
X805300Y899500D01*
X806900D01*
X806100Y897900D01*
X802975Y908400D02*
X802175Y910000D01*
X803775D01*
X802975Y908400D01*
X808800Y912125D02*
X808000Y913725D01*
X809600D01*
X808800Y912125D01*
X797700Y902700D02*
X796900Y904300D01*
X798500D01*
X797700Y902700D01*
X860200Y900400D02*
X859400Y902000D01*
X861000D01*
X860200Y900400D01*
X796700Y891075D02*
X795900Y892675D01*
X797500D01*
X796700Y891075D01*
X822000Y920700D02*
X821200Y922300D01*
X822800D01*
X822000Y920700D01*
X801800Y918300D02*
X801000Y919900D01*
X802600D01*
X801800Y918300D01*
X795900Y932900D02*
X795100Y934500D01*
X796700D01*
X795900Y932900D01*
X790900Y805400D02*
X790100Y807000D01*
X791700D01*
X790900Y805400D01*
X1131650Y528850D02*
X1130850Y530450D01*
X1132450D01*
X1131650Y528850D01*
X1123567Y515700D02*
X1122767Y517300D01*
X1124367D01*
X1123567Y515700D01*
X1091967Y493100D02*
X1091167Y494700D01*
X1092767D01*
X1091967Y493100D01*
X1090500Y446800D02*
X1089700Y448400D01*
X1091300D01*
X1090500Y446800D01*
X804000Y543700D02*
X803200Y545300D01*
X804800D01*
X804000Y543700D01*
X811600Y513600D02*
X810800Y515200D01*
X812400D01*
X811600Y513600D01*
X793000Y509800D02*
X792200Y511400D01*
X793800D01*
X793000Y509800D01*
X839500Y778100D02*
X838700Y779700D01*
X840300D01*
X839500Y778100D01*
X877600Y874000D02*
X876800Y875600D01*
X878400D01*
X877600Y874000D01*
X774500Y819100D02*
X773700Y820700D01*
X775300D01*
X774500Y819100D01*
X1154800Y1001600D02*
X1154000Y1003200D01*
X1155600D01*
X1154800Y1001600D01*
X1021780Y1021700D02*
X1020980Y1023300D01*
X1022580D01*
X1021780Y1021700D01*
X904400Y724700D02*
X903600Y726300D01*
X905200D01*
X904400Y724700D01*
X1058900Y430700D02*
X1058100Y432300D01*
X1059700D01*
X1058900Y430700D01*
X978300Y403000D02*
X977500Y404600D01*
X979100D01*
X978300Y403000D01*
X1121500Y766900D02*
X1120700Y768500D01*
X1122300D01*
X1121500Y766900D01*
X1158300Y780304D02*
X1157500Y781904D01*
X1159100D01*
X1158300Y780304D01*
X791300Y788300D02*
X790500Y789900D01*
X792100D01*
X791300Y788300D01*
X819800Y786700D02*
X819000Y788300D01*
X820600D01*
X819800Y786700D01*
X898200Y717000D02*
X897400Y718600D01*
X899000D01*
X898200Y717000D01*
X808200Y766000D02*
X807400Y767600D01*
X809000D01*
X808200Y766000D01*
X1121900Y897200D02*
X1121100Y898800D01*
X1122700D01*
X1121900Y897200D01*
X1113600Y516400D02*
X1112800Y518000D01*
X1114400D01*
X1113600Y516400D01*
X1151768Y698600D02*
X1150968Y700200D01*
X1152568D01*
X1151768Y698600D01*
X1170300Y728500D02*
X1169500Y730100D01*
X1171100D01*
X1170300Y728500D01*
X1111100Y503700D02*
X1110300Y505300D01*
X1111900D01*
X1111100Y503700D01*
X786500Y1136200D02*
X785700Y1137800D01*
X787300D01*
X786500Y1136200D01*
X794400Y1147300D02*
X793600Y1148900D01*
X795200D01*
X794400Y1147300D01*
X841800Y1145400D02*
X841000Y1147000D01*
X842600D01*
X841800Y1145400D01*
X738100Y887500D02*
X737300Y889100D01*
X738900D01*
X738100Y887500D01*
X737700Y790700D02*
X736900Y792300D01*
X738500D01*
X737700Y790700D01*
X782800Y759000D02*
X782000Y760600D01*
X783600D01*
X782800Y759000D01*
X912300Y1151600D02*
X911500Y1153200D01*
X913100D01*
X912300Y1151600D01*
X1032500Y610800D02*
X1031700Y612400D01*
X1033300D01*
X1032500Y610800D01*
X1041800D02*
X1041000Y612400D01*
X1042600D01*
X1041800Y610800D01*
X1125300Y637200D02*
X1124500Y638800D01*
X1126100D01*
X1125300Y637200D01*
X1133700Y607600D02*
X1132900Y609200D01*
X1134500D01*
X1133700Y607600D01*
X1054600Y732100D02*
X1053800Y733700D01*
X1055400D01*
X1054600Y732100D01*
X992400Y634600D02*
X991600Y636200D01*
X993200D01*
X992400Y634600D01*
X1053600Y739000D02*
X1052800Y740600D01*
X1054400D01*
X1053600Y739000D01*
X1019400D02*
X1018600Y740600D01*
X1020200D01*
X1019400Y739000D01*
X1035600Y722100D02*
X1034800Y723700D01*
X1036400D01*
X1035600Y722100D01*
X1078200Y419000D02*
X1077400Y420600D01*
X1079000D01*
X1078200Y419000D01*
X1069600Y436300D02*
X1068800Y437900D01*
X1070400D01*
X1069600Y436300D01*
X1006400Y402900D02*
X1005600Y404500D01*
X1007200D01*
X1006400Y402900D01*
X749200Y753300D02*
X748400Y754900D01*
X750000D01*
X749200Y753300D01*
X777200Y746300D02*
X776400Y747900D01*
X778000D01*
X777200Y746300D01*
X1093700Y461100D02*
X1092900Y462700D01*
X1094500D01*
X1093700Y461100D01*
X1073400Y481500D02*
X1072600Y483100D01*
X1074200D01*
X1073400Y481500D01*
X1083300Y488600D02*
X1082500Y490200D01*
X1084100D01*
X1083300Y488600D01*
X1101250Y456283D02*
X1100450Y457883D01*
X1102050D01*
X1101250Y456283D01*
X1103400Y451500D02*
X1102600Y453100D01*
X1104200D01*
X1103400Y451500D01*
X1126900Y504600D02*
X1126100Y506200D01*
X1127700D01*
X1126900Y504600D01*
X1128200Y416900D02*
X1127400Y418500D01*
X1129000D01*
X1128200Y416900D01*
X964000Y1030000D02*
X963200Y1031600D01*
X964800D01*
X964000Y1030000D01*
X780700Y497000D02*
X779900Y498600D01*
X781500D01*
X780700Y497000D01*
X797100Y495572D02*
X796300Y497172D01*
X797900D01*
X797100Y495572D01*
X787700Y503900D02*
X786900Y505500D01*
X788500D01*
X787700Y503900D01*
X1027200Y413200D02*
X1026400Y414800D01*
X1028000D01*
X1027200Y413200D01*
X953100Y994800D02*
X952300Y996400D01*
X953900D01*
X953100Y994800D01*
X993400Y976500D02*
X992600Y978100D01*
X994200D01*
X993400Y976500D01*
X1002800Y745700D02*
X1002000Y747300D01*
X1003600D01*
X1002800Y745700D01*
X1097400Y467500D02*
X1096600Y469100D01*
X1098200D01*
X1097400Y467500D01*
X780900Y762800D02*
X780100Y764400D01*
X781700D01*
X780900Y762800D01*
X779800Y790000D02*
X779000Y791600D01*
X780600D01*
X779800Y790000D01*
X825900Y715100D02*
X825100Y716700D01*
X826700D01*
X825900Y715100D01*
X1101300Y489300D02*
X1100500Y490900D01*
X1102100D01*
X1101300Y489300D01*
X1092300Y488700D02*
X1091500Y490300D01*
X1093100D01*
X1092300Y488700D01*
X1118000Y459700D02*
X1117200Y461300D01*
X1118800D01*
X1118000Y459700D01*
X1108700Y527500D02*
X1107900Y529100D01*
X1109500D01*
X1108700Y527500D01*
X1135800Y516600D02*
X1135000Y518200D01*
X1136600D01*
X1135800Y516600D01*
X983300Y443700D02*
X982500Y445300D01*
X984100D01*
X983300Y443700D01*
X1134400Y917500D02*
X1133600Y919100D01*
X1135200D01*
X1134400Y917500D01*
X786800Y745600D02*
X786000Y747200D01*
X787600D01*
X786800Y745600D01*
X962500Y821700D02*
X961700Y823300D01*
X963300D01*
X962500Y821700D01*
X1104600Y835300D02*
X1103800Y836900D01*
X1105400D01*
X1104600Y835300D01*
X1101300Y462500D02*
X1100500Y464100D01*
X1102100D01*
X1101300Y462500D01*
X822163Y779537D02*
X821363Y781137D01*
X822963D01*
X822163Y779537D01*
X768400Y836400D02*
X767600Y838000D01*
X769200D01*
X768400Y836400D01*
X1175500Y975200D02*
X1174700Y976800D01*
X1176300D01*
X1175500Y975200D01*
X1106200Y990700D02*
X1105400Y992300D01*
X1107000D01*
X1106200Y990700D01*
X1126300D02*
X1125500Y992300D01*
X1127100D01*
X1126300Y990700D01*
X1093800Y479863D02*
X1093000Y481463D01*
X1094600D01*
X1093800Y479863D01*
X811558Y521058D02*
X810758Y522658D01*
X812358D01*
X811558Y521058D01*
X779800Y561800D02*
X779000Y563400D01*
X780600D01*
X779800Y561800D01*
X833000D02*
X832200Y563400D01*
X833800D01*
X833000Y561800D01*
X851900Y462000D02*
X851100Y463600D01*
X852700D01*
X851900Y462000D01*
X764600D02*
X763800Y463600D01*
X765400D01*
X764600Y462000D01*
X1172625Y822825D02*
X1171825Y824425D01*
X1173425D01*
X1172625Y822825D01*
X960900Y745800D02*
X960100Y747400D01*
X961700D01*
X960900Y745800D01*
X1126300Y1010600D02*
X1125500Y1012200D01*
X1127100D01*
X1126300Y1010600D01*
X916757Y719975D02*
X915957Y721575D01*
X917557D01*
X916757Y719975D01*
X1147661Y1004300D02*
X1146861Y1005900D01*
X1148461D01*
X1147661Y1004300D01*
X762100Y832500D02*
X761300Y834100D01*
X762900D01*
X762100Y832500D01*
X884700Y847900D02*
X883900Y849500D01*
X885500D01*
X884700Y847900D01*
X836724Y811899D02*
X835924Y813499D01*
X837524D01*
X836724Y811899D01*
X807825Y902325D02*
X807025Y903925D01*
X808625D01*
X807825Y902325D01*
X795900Y937700D02*
X795100Y939300D01*
X796700D01*
X795900Y937700D01*
X823154Y805300D02*
X822354Y806900D01*
X823954D01*
X823154Y805300D01*
X759000Y817600D02*
X758200Y819200D01*
X759800D01*
X759000Y817600D01*
X948031Y756369D02*
X948431Y757169D01*
X948031Y757969D01*
X948831Y757569D01*
X949631Y757969D01*
X949231Y757169D01*
X949631Y756369D01*
X948831Y756769D01*
X948031Y756369D01*
X943700D02*
X944100Y757169D01*
X943700Y757969D01*
X944500Y757569D01*
X945300Y757969D01*
X944900Y757169D01*
X945300Y756369D01*
X944500Y756769D01*
X943700Y756369D01*
X939369D02*
X939769Y757169D01*
X939369Y757969D01*
X940169Y757569D01*
X940969Y757969D01*
X940569Y757169D01*
X940969Y756369D01*
X940169Y756769D01*
X939369Y756369D01*
X948031Y760700D02*
X948431Y761500D01*
X948031Y762300D01*
X948831Y761900D01*
X949631Y762300D01*
X949231Y761500D01*
X949631Y760700D01*
X948831Y761100D01*
X948031Y760700D01*
X943700D02*
X944100Y761500D01*
X943700Y762300D01*
X944500Y761900D01*
X945300Y762300D01*
X944900Y761500D01*
X945300Y760700D01*
X944500Y761100D01*
X943700Y760700D01*
X939369D02*
X939769Y761500D01*
X939369Y762300D01*
X940169Y761900D01*
X940969Y762300D01*
X940569Y761500D01*
X940969Y760700D01*
X940169Y761100D01*
X939369Y760700D01*
X948031Y765031D02*
X948431Y765831D01*
X948031Y766631D01*
X948831Y766231D01*
X949631Y766631D01*
X949231Y765831D01*
X949631Y765031D01*
X948831Y765431D01*
X948031Y765031D01*
X943700D02*
X944100Y765831D01*
X943700Y766631D01*
X944500Y766231D01*
X945300Y766631D01*
X944900Y765831D01*
X945300Y765031D01*
X944500Y765431D01*
X943700Y765031D01*
X939369D02*
X939769Y765831D01*
X939369Y766631D01*
X940169Y766231D01*
X940969Y766631D01*
X940569Y765831D01*
X940969Y765031D01*
X940169Y765431D01*
X939369Y765031D01*
X1020960Y612850D02*
X1021360Y613650D01*
X1020960Y614450D01*
X1021760Y614050D01*
X1022560Y614450D01*
X1022160Y613650D01*
X1022560Y612850D01*
X1021760Y613250D01*
X1020960Y612850D01*
Y608519D02*
X1021360Y609319D01*
X1020960Y610119D01*
X1021760Y609719D01*
X1022560Y610119D01*
X1022160Y609319D01*
X1022560Y608519D01*
X1021760Y608919D01*
X1020960Y608519D01*
X1016629Y612850D02*
X1017029Y613650D01*
X1016629Y614450D01*
X1017429Y614050D01*
X1018229Y614450D01*
X1017829Y613650D01*
X1018229Y612850D01*
X1017429Y613250D01*
X1016629Y612850D01*
Y608519D02*
X1017029Y609319D01*
X1016629Y610119D01*
X1017429Y609719D01*
X1018229Y610119D01*
X1017829Y609319D01*
X1018229Y608519D01*
X1017429Y608919D01*
X1016629Y608519D01*
D171*
X952800Y1038000D02*
G03*
X952800Y1038000I-800J0D01*
G01*
X957800D02*
G03*
X957800Y1038000I-800J0D01*
G01*
X952800Y1033000D02*
G03*
X952800Y1033000I-800J0D01*
G01*
X957800D02*
G03*
X957800Y1033000I-800J0D01*
G01*
X952800Y1028000D02*
G03*
X952800Y1028000I-800J0D01*
G01*
X957800D02*
G03*
X957800Y1028000I-800J0D01*
G01*
X952800Y1023000D02*
G03*
X952800Y1023000I-800J0D01*
G01*
X957800D02*
G03*
X957800Y1023000I-800J0D01*
G01*
M02*
